<svg width="48" height="43" viewBox="0 0 48 43" fill="none" xmlns="http://www.w3.org/2000/svg">
<path fill-rule="evenodd" clip-rule="evenodd" d="M23.2733 0.363363L0.906944 11.5466C-0.29076 12.1454 -0.290758 13.8546 0.906946 14.4534L23.2733 25.6366C23.7308 25.8654 24.2693 25.8654 24.7268 25.6366L44.7351 15.6325L44.7351 24.3749C44.7351 25.2724 45.4626 25.9999 46.3601 25.9999C47.2576 25.9999 47.9851 25.2724 47.9851 24.3749L47.9851 13.1451C48.0396 12.5218 47.7423 11.8711 47.0932 11.5466L24.7268 0.363362C24.2693 0.134621 23.7308 0.134622 23.2733 0.363363ZM8.92672 21.7128C8.38648 21.4427 7.75085 21.8356 7.75085 22.4396V32.4999C7.75085 32.4999 7.75085 42.2499 24.0009 42.2499C40.2509 42.2499 40.2509 32.4999 40.2509 32.4999V22.4396C40.2509 21.8356 39.6152 21.4427 39.075 21.7128L25.4543 28.5232C24.5393 28.9807 23.4624 28.9807 22.5474 28.5232L8.92672 21.7128Z" fill="white"/>
</svg>
