<svg width="49" height="49" viewBox="0 0 49 49" fill="none" xmlns="http://www.w3.org/2000/svg">
<path d="M47.4948 10.8606C48.3263 10.8606 49 10.1986 49 9.38764V5.02554C49 4.21234 48.3263 3.54964 47.4948 3.54964H44.1142V2.36664C44.1142 1.73914 43.8653 1.13724 43.4221 0.69344C42.9789 0.24964 42.3778 0.00019 41.7509 0H2.3633C2.0529 0 1.7455 0.0612205 1.4587 0.180161C1.1719 0.299141 0.9114 0.47344 0.6919 0.69324C0.4725 0.91304 0.2984 1.17394 0.1797 1.46104C0.061 1.74814 -9.98774e-05 2.05584 1.22551e-07 2.36664V46.634C0.000800123 47.2613 0.25 47.8626 0.693 48.3061C1.1361 48.7497 1.7367 48.9992 2.3633 49H41.7502C42.3768 48.9992 42.9774 48.7497 43.4204 48.3061C43.8635 47.8626 44.1127 47.2613 44.1135 46.634V45.4017H47.494C48.3255 45.4017 48.9993 44.7419 48.9993 43.9287V39.5658C48.9993 38.7526 48.3255 38.0899 47.494 38.0899H44.1135V33.8843H47.494C48.3255 33.8843 48.9993 33.2245 48.9993 32.415V28.0521C48.9993 27.2389 48.3255 26.5762 47.494 26.5762H44.1135V22.3706H47.494C48.3255 22.3706 48.9993 21.7086 48.9993 20.8976V16.5348C48.9993 15.7245 48.3255 15.0618 47.494 15.0618H44.1135V10.8591H47.4948V10.8606ZM33.6335 34.5964C33.6335 35.4465 33.0409 36.1373 32.3104 36.1373H11.7839C11.0527 36.1373 10.4608 35.4473 10.4608 34.5964V28.247C10.4608 27.6153 10.7903 27.0478 11.2915 26.8146L19.3264 23.0679C17.4223 21.9189 16.1191 19.6076 16.1191 16.9399C16.1191 13.1261 18.772 10.0355 22.0464 10.0355C25.3215 10.0355 27.9745 13.1261 27.9745 16.9399C27.9745 19.5685 26.7155 21.851 24.8594 23.0192L32.8124 26.8183C33.3092 27.0581 33.6343 27.619 33.6343 28.2477L33.6335 34.5964Z" fill="white"/>
</svg>
