<svg width="43" height="48" viewBox="0 0 43 48" fill="none" xmlns="http://www.w3.org/2000/svg">
<path fill-rule="evenodd" clip-rule="evenodd" d="M31.6834 1.3501C32.5946 0.438881 34.072 0.438881 34.9832 1.3501L41.9832 8.3501C42.8944 9.26133 42.8944 10.7387 41.9832 11.6499L34.9832 18.6499C34.072 19.5612 32.5946 19.5612 31.6834 18.6499C30.7722 17.7387 30.7722 16.2613 31.6834 15.3501L34.7001 12.3334H9.99996C8.76228 12.3334 7.5753 12.825 6.70013 13.7002C5.82496 14.5754 5.33329 15.7623 5.33329 17V24C5.33329 25.2887 4.28862 26.3334 2.99996 26.3334C1.71129 26.3334 0.666626 25.2887 0.666626 24V17C0.666626 14.5247 1.64996 12.1507 3.4003 10.4004C5.15064 8.65002 7.52461 7.66669 9.99996 7.66669H34.7001L31.6834 4.64994C30.7722 3.73871 30.7722 2.26133 31.6834 1.3501ZM40.3333 21.6667C41.622 21.6667 42.6666 22.7114 42.6666 24V31C42.6666 33.4754 41.6833 35.8493 39.933 37.5997C38.1826 39.35 35.8086 40.3334 33.3333 40.3334H8.63312L11.6499 43.3501C12.5611 44.2613 12.5611 45.7387 11.6499 46.6499C10.7387 47.5612 9.26127 47.5612 8.35004 46.6499L1.35004 39.6499C0.43882 38.7387 0.43882 37.2613 1.35004 36.3501L8.35004 29.3501C9.26127 28.4389 10.7387 28.4389 11.6499 29.3501C12.5611 30.2613 12.5611 31.7387 11.6499 32.6499L8.63313 35.6667H33.3333C34.571 35.6667 35.758 35.175 36.6331 34.2999C37.5083 33.4247 38 32.2377 38 31V24C38 22.7114 39.0446 21.6667 40.3333 21.6667Z" fill="white"/>
</svg>
