<svg width="50" height="41" viewBox="0 0 50 41" fill="none" xmlns="http://www.w3.org/2000/svg">
<g clip-path="url(#clip0_0_26)">
<mask id="mask0_0_26" style="mask-type:luminance" maskUnits="userSpaceOnUse" x="0" y="-9" width="50" height="50">
<path d="M49.3853 -8.19672H0.204956V40.9836H49.3853V-8.19672Z" fill="white"/>
</mask>
<g mask="url(#mask0_0_26)">
<path d="M44.7746 3.03287C45.1823 3.03287 45.5732 3.20992 45.8614 3.525C46.1496 3.84016 46.3115 4.26754 46.3115 4.71319V34.9591C46.3115 35.4048 46.1496 35.8321 45.8614 36.1473C45.5732 36.4624 45.1823 36.6394 44.7746 36.6394H4.81561C4.40801 36.6394 4.0171 36.4624 3.72887 36.1473C3.44064 35.8321 3.27873 35.4048 3.27873 34.9591V4.71319C3.27873 4.26754 3.44064 3.84016 3.72887 3.525C4.0171 3.20992 4.40801 3.03287 4.81561 3.03287H44.7746ZM4.81561 -0.327789C3.59279 -0.327789 2.42005 0.203276 1.55538 1.14869C0.69072 2.09401 0.204956 3.37623 0.204956 4.71319V34.9591C0.204956 36.2961 0.69072 37.5783 1.55538 38.5236C2.42005 39.469 3.59279 40.0001 4.81561 40.0001H44.7746C45.9974 40.0001 47.1702 39.469 48.0349 38.5236C48.8995 37.5783 49.3853 36.2961 49.3853 34.9591V4.71319C49.3853 3.37623 48.8995 2.09401 48.0349 1.14869C47.1702 0.203276 45.9974 -0.327789 44.7746 -0.327789H4.81561Z" fill="white"/>
<path d="M15.5738 19.836C15.5738 19.3903 15.7357 18.9629 16.024 18.6478C16.3122 18.3327 16.7031 18.1557 17.1107 18.1557H38.6271C39.0347 18.1557 39.4256 18.3327 39.7138 18.6478C40.0021 18.9629 40.164 19.3903 40.164 19.836C40.164 20.2816 40.0021 20.709 39.7138 21.0242C39.4256 21.3393 39.0347 21.5163 38.6271 21.5163H17.1107C16.7031 21.5163 16.3122 21.3393 16.024 21.0242C15.7357 20.709 15.5738 20.2816 15.5738 19.836ZM15.5738 11.4343C15.5738 10.9887 15.7357 10.5613 16.024 10.2461C16.3122 9.93106 16.7031 9.75401 17.1107 9.75401H38.6271C39.0347 9.75401 39.4256 9.93106 39.7138 10.2461C40.0021 10.5613 40.164 10.9887 40.164 11.4343C40.164 11.88 40.0021 12.3074 39.7138 12.6225C39.4256 12.9376 39.0347 13.1147 38.6271 13.1147H17.1107C16.7031 13.1147 16.3122 12.9376 16.024 12.6225C15.7357 12.3074 15.5738 11.88 15.5738 11.4343ZM15.5738 28.2376C15.5738 27.792 15.7357 27.3646 16.024 27.0494C16.3122 26.7343 16.7031 26.5573 17.1107 26.5573H38.6271C39.0347 26.5573 39.4256 26.7343 39.7138 27.0494C40.0021 27.3646 40.164 27.792 40.164 28.2376C40.164 28.6833 40.0021 29.1107 39.7138 29.4258C39.4256 29.7409 39.0347 29.9179 38.6271 29.9179H17.1107C16.7031 29.9179 16.3122 29.7409 16.024 29.4258C15.7357 29.1107 15.5738 28.6833 15.5738 28.2376ZM12.5 11.4343C12.5 11.88 12.3382 12.3074 12.0499 12.6225C11.7617 12.9376 11.3708 13.1147 10.9632 13.1147C10.5555 13.1147 10.1646 12.9376 9.87643 12.6225C9.58815 12.3074 9.42627 11.88 9.42627 11.4343C9.42627 10.9887 9.58815 10.5613 9.87643 10.2461C10.1646 9.93106 10.5555 9.75401 10.9632 9.75401C11.3708 9.75401 11.7617 9.93106 12.0499 10.2461C12.3382 10.5613 12.5 10.9887 12.5 11.4343ZM12.5 19.836C12.5 20.2816 12.3382 20.709 12.0499 21.0242C11.7617 21.3393 11.3708 21.5163 10.9632 21.5163C10.5555 21.5163 10.1646 21.3393 9.87643 21.0242C9.58815 20.709 9.42627 20.2816 9.42627 19.836C9.42627 19.3903 9.58815 18.9629 9.87643 18.6478C10.1646 18.3327 10.5555 18.1557 10.9632 18.1557C11.3708 18.1557 11.7617 18.3327 12.0499 18.6478C12.3382 18.9629 12.5 19.3903 12.5 19.836ZM12.5 28.2376C12.5 28.6833 12.3382 29.1107 12.0499 29.4258C11.7617 29.7409 11.3708 29.9179 10.9632 29.9179C10.5555 29.9179 10.1646 29.7409 9.87643 29.4258C9.58815 29.1107 9.42627 28.6833 9.42627 28.2376C9.42627 27.792 9.58815 27.3646 9.87643 27.0494C10.1646 26.7343 10.5555 26.5573 10.9632 26.5573C11.3708 26.5573 11.7617 26.7343 12.0499 27.0494C12.3382 27.3646 12.5 27.792 12.5 28.2376Z" fill="white"/>
</g>
</g>
<defs>
<clipPath id="clip0_0_26">
<rect width="50" height="40.9836" fill="white"/>
</clipPath>
</defs>
</svg>
