<?xml version="1.0" encoding="UTF-8" standalone="no"?>
<svg
   width="18"
   height="18"
   viewBox="0 0 18 18"
   fill="none"
   version="1.1"
   id="svg4"
   sodipodi:docname="checkbox-checked.svg"
   inkscape:version="1.2.2 (732a01da63, 2022-12-09)"
   xmlns:inkscape="http://www.inkscape.org/namespaces/inkscape"
   xmlns:sodipodi="http://sodipodi.sourceforge.net/DTD/sodipodi-0.dtd"
   xmlns="http://www.w3.org/2000/svg"
   xmlns:svg="http://www.w3.org/2000/svg">
  <defs
     id="defs8" />
  <sodipodi:namedview
     id="namedview6"
     pagecolor="#ffffff"
     bordercolor="#000000"
     borderopacity="0.25"
     inkscape:showpageshadow="2"
     inkscape:pageopacity="0.0"
     inkscape:pagecheckerboard="0"
     inkscape:deskcolor="#d1d1d1"
     showgrid="false"
     inkscape:zoom="30.611111"
     inkscape:cx="14.700544"
     inkscape:cy="9.0163339"
     inkscape:window-width="1366"
     inkscape:window-height="705"
     inkscape:window-x="-8"
     inkscape:window-y="-8"
     inkscape:window-maximized="1"
     inkscape:current-layer="svg4" />
  <path
     fill-rule="evenodd"
     clip-rule="evenodd"
     d="M1.63636 1.63636H16.3636V16.3636H1.63636V1.63636ZM0 1.63636C0 1.20237 0.172402 0.786157 0.47928 0.47928C0.786157 0.172402 1.20237 0 1.63636 0H9H16.3636C16.7976 0 17.2138 0.172402 17.5207 0.47928C17.8276 0.786157 18 1.20237 18 1.63636V16.3636C18 16.7976 17.8276 17.2138 17.5207 17.5207C17.2138 17.8276 16.7976 18 16.3636 18H1.63636C1.20237 18 0.786157 17.8276 0.47928 17.5207C0.172402 17.2138 0 16.7976 0 16.3636V1.63636ZM13.6636 5.74527C13.7865 5.56625 13.8331 5.34577 13.7934 5.13234C13.7536 4.91891 13.6307 4.73 13.4517 4.60718C13.2727 4.48436 13.0522 4.43769 12.8388 4.47743C12.6254 4.51717 12.4365 4.64007 12.3136 4.81909L7.59273 11.7L5.23145 8.85273C5.09244 8.68749 4.89375 8.5839 4.67868 8.56455C4.46362 8.5452 4.24962 8.61165 4.08335 8.74942C3.91707 8.88719 3.812 9.08511 3.79104 9.30003C3.77008 9.51494 3.83493 9.72943 3.97145 9.89673L7.02491 13.5785C7.10578 13.6759 7.20813 13.7531 7.32389 13.8041C7.43965 13.8552 7.56568 13.8787 7.69207 13.8729C7.81846 13.867 7.94177 13.8319 8.0523 13.7703C8.16283 13.7087 8.25758 13.6224 8.32909 13.518L13.6636 5.74527Z"
     fill="#00B0D9"
     id="path2"
     style="fill:#ffffff;fill-opacity:1" />
</svg>
