<svg width="50" height="50" viewBox="0 0 50 50" fill="none" xmlns="http://www.w3.org/2000/svg">
<g clip-path="url(#clip0_0_110)">
<path d="M48.7537 46.4039L3.45471 1.10485C2.84451 0.49466 1.85519 0.49466 1.245 1.10485C0.634805 1.71505 0.634805 2.70437 1.245 3.31456L46.544 48.6136C47.1542 49.2238 48.1435 49.2238 48.7537 48.6136C49.3639 48.0034 49.3639 47.0141 48.7537 46.4039Z" fill="white"/>
<path d="M1.24552 46.4039L46.5446 1.10485C47.1548 0.49466 48.1441 0.49466 48.7543 1.10485C49.3645 1.71505 49.3645 2.70437 48.7543 3.31456L3.45523 48.6136C2.84503 49.2238 1.85571 49.2238 1.24552 48.6136C0.635322 48.0034 0.635322 47.0141 1.24552 46.4039Z" fill="white"/>
</g>
<defs>
<clipPath id="clip0_0_110">
<rect width="50" height="50" fill="white"/>
</clipPath>
</defs>
</svg>
