<svg width="49" height="55" viewBox="0 0 49 55" fill="none" xmlns="http://www.w3.org/2000/svg">
<path fill-rule="evenodd" clip-rule="evenodd" d="M9.33957 0.465907C9.95888 0.0530309 10.7657 0.0530309 11.385 0.465907L19.7473 6.04077C20.2603 6.38272 20.5683 6.9584 20.5683 7.57486V22.4557H28.0306V7.57486C28.0306 6.9584 28.3387 6.38272 28.8516 6.04077L37.2139 0.465907C37.8332 0.0530309 38.64 0.0530309 39.2593 0.465907L47.6216 6.04077C48.1346 6.38272 48.4427 6.9584 48.4427 7.57486V49.3864C48.4427 50.6146 47.9547 51.7926 47.0862 52.6611C46.2177 53.5296 45.0397 54.0175 43.8115 54.0175H35.4492C34.2209 54.0175 33.043 53.5296 32.1744 52.6611C31.3059 51.7926 30.818 50.6146 30.818 49.3864V46.5989C30.818 44.8701 30.1312 43.2121 28.9088 41.9896C27.6863 40.7671 26.0283 40.0804 24.2995 40.0804C22.5706 40.0804 20.9126 40.7671 19.6901 41.9896C18.4677 43.2121 17.7809 44.8701 17.7809 46.5989V49.3864C17.7809 50.6146 17.293 51.7926 16.4245 52.6611C15.556 53.5296 14.378 54.0175 13.1497 54.0175H4.78743C3.55917 54.0175 2.38121 53.5296 1.51269 52.6611C0.644177 51.7926 0.15625 50.6146 0.15625 49.3864V7.57486C0.15625 6.9584 0.464343 6.38272 0.977271 6.04077L9.33957 0.465907ZM3.84375 8.56161V49.3864C3.84375 49.6366 3.94317 49.8767 4.12015 50.0536C4.29712 50.2306 4.53715 50.33 4.78743 50.33H13.1497C13.4 50.33 13.64 50.2306 13.817 50.0536C13.994 49.8767 14.0934 49.6366 14.0934 49.3864V46.5989C14.0934 43.8921 15.1687 41.2962 17.0827 39.3822C18.9967 37.4681 21.5926 36.3929 24.2995 36.3929C27.0063 36.3929 29.6022 37.4681 31.5162 39.3822C33.4302 41.2962 34.5055 43.8921 34.5055 46.5989V49.3864C34.5055 49.6366 34.6049 49.8767 34.7819 50.0536C34.9589 50.2306 35.1989 50.33 35.4492 50.33H43.8115C44.0618 50.33 44.3018 50.2306 44.4788 50.0536C44.6557 49.8767 44.7552 49.6366 44.7552 49.3864V8.56161L38.2366 4.21591L31.7181 8.56161V24.2995C31.7181 25.3177 30.8926 26.1432 29.8743 26.1432H18.7246C17.7063 26.1432 16.8808 25.3177 16.8808 24.2995V8.56161L10.3623 4.21591L3.84375 8.56161ZM10.3623 11.306C11.3806 11.306 12.206 12.1315 12.206 13.1497V13.1776C12.206 14.1959 11.3806 15.0214 10.3623 15.0214C9.34402 15.0214 8.51855 14.1959 8.51855 13.1776V13.1497C8.51855 12.1315 9.34402 11.306 10.3623 11.306ZM38.2366 11.306C39.2549 11.306 40.0804 12.1315 40.0804 13.1497V13.1776C40.0804 14.1959 39.2549 15.0214 38.2366 15.0214C37.2183 15.0214 36.3929 14.1959 36.3929 13.1776V13.1497C36.3929 12.1315 37.2183 11.306 38.2366 11.306ZM10.3623 19.6683C11.3806 19.6683 12.206 20.4938 12.206 21.512V21.5399C12.206 22.5582 11.3806 23.3837 10.3623 23.3837C9.34402 23.3837 8.51855 22.5582 8.51855 21.5399V21.512C8.51855 20.4938 9.34402 19.6683 10.3623 19.6683ZM38.2366 19.6683C39.2549 19.6683 40.0804 20.4938 40.0804 21.512V21.5399C40.0804 22.5582 39.2549 23.3837 38.2366 23.3837C37.2183 23.3837 36.3929 22.5582 36.3929 21.5399V21.512C36.3929 20.4938 37.2183 19.6683 38.2366 19.6683ZM10.3623 28.0306C11.3806 28.0306 12.206 28.856 12.206 29.8743V29.9022C12.206 30.9205 11.3806 31.7459 10.3623 31.7459C9.34402 31.7459 8.51855 30.9205 8.51855 29.9022V29.8743C8.51855 28.856 9.34402 28.0306 10.3623 28.0306ZM38.2366 28.0306C39.2549 28.0306 40.0804 28.856 40.0804 29.8743V29.9022C40.0804 30.9205 39.2549 31.7459 38.2366 31.7459C37.2183 31.7459 36.3929 30.9205 36.3929 29.9022V29.8743C36.3929 28.856 37.2183 28.0306 38.2366 28.0306Z" fill="white"/>
</svg>
