<svg width="50" height="48" viewBox="0 0 50 48" fill="none" xmlns="http://www.w3.org/2000/svg">
<path fill-rule="evenodd" clip-rule="evenodd" d="M2.57812 24C2.57812 11.8494 12.4276 2 24.5782 2C36.7288 2 46.5782 11.8494 46.5782 24C46.5782 36.1506 36.7288 46 24.5782 46C12.4276 46 2.57812 36.1506 2.57812 24ZM24.5782 6C14.6367 6 6.57812 14.0586 6.57812 24C6.57812 33.9414 14.6367 42 24.5782 42C34.5196 42 42.5782 33.9414 42.5782 24C42.5782 14.0586 34.5196 6 24.5782 6ZM17.5077 16.93C18.2886 16.1489 19.5549 16.1486 20.3361 16.9295L24.5799 21.1718L28.822 16.9298C29.603 16.1487 30.8694 16.1487 31.6504 16.9298C32.4315 17.7108 32.4315 18.9772 31.6504 19.7582L27.4086 24L31.6504 28.2418C32.4315 29.0228 32.4315 30.2892 31.6504 31.0702C30.8694 31.8513 29.603 31.8513 28.822 31.0702L24.5799 26.8282L20.3361 31.0705C19.5549 31.8514 18.2886 31.8511 17.5077 31.07C16.7267 30.2888 16.727 29.0224 17.5082 28.2415L21.7513 24L17.5082 19.7585C16.727 18.9776 16.7267 17.7112 17.5077 16.93Z" fill="white"/>
</svg>
