<svg width="43" height="53" viewBox="0 0 43 53" fill="none" xmlns="http://www.w3.org/2000/svg">
<path fill-rule="evenodd" clip-rule="evenodd" d="M8.22225 5.61111C7.52974 5.61111 6.86559 5.88621 6.37591 6.37588C5.88624 6.86556 5.61114 7.52971 5.61114 8.22222V44.7778C5.61114 45.4703 5.88624 46.1344 6.37591 46.6241C6.86559 47.1138 7.52974 47.3889 8.22225 47.3889H34.3334C35.0259 47.3889 35.69 47.1138 36.1797 46.6241C36.6694 46.1344 36.9445 45.4703 36.9445 44.7778V18.6667H29.1111C27.7261 18.6667 26.3978 18.1165 25.4185 17.1371C24.4391 16.1578 23.8889 14.8295 23.8889 13.4444V5.61111H8.22225ZM29.1111 9.30378L33.2518 13.4444H29.1111V9.30378ZM2.68325 2.68322C4.15228 1.21418 6.14472 0.388885 8.22225 0.388885H26.5C27.1925 0.388885 27.8567 0.663984 28.3464 1.15366L41.4019 14.2092C41.8916 14.6989 42.1667 15.363 42.1667 16.0556V44.7778C42.1667 46.8553 41.3414 48.8477 39.8724 50.3168C38.4033 51.7858 36.4109 52.6111 34.3334 52.6111H8.22225C6.14472 52.6111 4.15228 51.7858 2.68325 50.3168C1.21421 48.8477 0.388916 46.8553 0.388916 44.7778V8.22222C0.388916 6.14469 1.21421 4.15225 2.68325 2.68322ZM10.8334 18.6667C10.8334 17.2246 12.0024 16.0556 13.4445 16.0556H16.0556C17.4977 16.0556 18.6667 17.2246 18.6667 18.6667C18.6667 20.1087 17.4977 21.2778 16.0556 21.2778H13.4445C12.0024 21.2778 10.8334 20.1087 10.8334 18.6667ZM10.8334 29.1111C10.8334 27.669 12.0024 26.5 13.4445 26.5H29.1111C30.5532 26.5 31.7222 27.669 31.7222 29.1111C31.7222 30.5532 30.5532 31.7222 29.1111 31.7222H13.4445C12.0024 31.7222 10.8334 30.5532 10.8334 29.1111ZM10.8334 39.5556C10.8334 38.1135 12.0024 36.9444 13.4445 36.9444H29.1111C30.5532 36.9444 31.7222 38.1135 31.7222 39.5556C31.7222 40.9976 30.5532 42.1667 29.1111 42.1667H13.4445C12.0024 42.1667 10.8334 40.9976 10.8334 39.5556Z" fill="white"/>
</svg>
