<svg width="46" height="44" viewBox="0 0 46 44" fill="none" xmlns="http://www.w3.org/2000/svg">
<g clip-path="url(#clip0_0_60)">
<path fill-rule="evenodd" clip-rule="evenodd" d="M25.4772 0.145935C20.1647 0.145935 15.7531 4.35469 15.7531 9.67439C15.7531 14.994 20.1646 19.2029 25.4772 19.2029C30.7898 19.2029 35.2014 14.994 35.2014 9.67439C35.2014 4.35469 30.7898 0.145935 25.4772 0.145935Z" fill="white"/>
<path fill-rule="evenodd" clip-rule="evenodd" d="M23.3534 26.4399C13.7417 26.4399 6.53279 33.1189 6.53279 40.6896C6.53279 41.9552 5.50678 42.9812 4.24113 42.9812C2.97548 42.9812 1.94946 41.9552 1.94946 40.6896C1.94946 29.9883 11.8545 21.8566 23.3534 21.8566C24.619 21.8566 25.645 22.8826 25.645 24.1482C25.645 25.4139 24.619 26.4399 23.3534 26.4399Z" fill="white"/>
<path d="M32.9084 41.7233L43.5263 31.385L39.2791 27.2497L28.6613 37.5881V41.7233H32.9084Z" fill="white"/>
<path fill-rule="evenodd" clip-rule="evenodd" d="M37.6804 25.6077C38.5702 24.7414 39.9881 24.7414 40.8778 25.6077L45.1251 29.7431C45.5681 30.1745 45.818 30.7666 45.818 31.385C45.818 32.0034 45.5681 32.5955 45.1251 33.0269L34.5071 43.3652C34.0792 43.7818 33.5056 44.015 32.9084 44.015H28.6613C27.3956 44.015 26.3696 42.989 26.3696 41.7233V37.588C26.3696 36.9697 26.6195 36.3775 27.0626 35.9461L37.6804 25.6077ZM39.2792 30.4482L30.953 38.5552V39.4316H31.9771L40.2414 31.385L39.2792 30.4482Z" fill="white"/>
</g>
<defs>
<clipPath id="clip0_0_60">
<rect width="46" height="44" fill="white"/>
</clipPath>
</defs>
</svg>
