<svg width="26" height="26" viewBox="0 0 26 26" fill="none" xmlns="http://www.w3.org/2000/svg">
<path d="M4.19453 2.79297C3.54453 3.00117 2.99102 3.55469 2.79297 4.19961C2.70156 4.49922 2.69141 4.67187 2.69141 6.04804V7.5664H1.7875C0.802344 7.5664 0.73125 7.58164 0.583984 7.87109C0.517969 7.99804 0.507812 8.84101 0.507812 14.4371C0.507812 20.6629 0.512891 20.866 0.609375 21.2469C0.746484 21.7852 0.929297 22.1051 1.32031 22.4961C1.69609 22.8719 2.12266 23.1207 2.59492 23.2324C3.08242 23.3441 22.9125 23.3441 23.4 23.2324C24.4055 22.9937 25.1977 22.1762 25.416 21.1504C25.5277 20.607 25.5277 5.90586 25.416 5.6875C25.2484 5.3625 25.6547 5.38281 18.7637 5.38281H12.4922V5.05781C12.4922 4.04726 12.0352 3.28047 11.1871 2.87929L10.8418 2.71679L7.66797 2.70664C4.67188 2.69648 4.47891 2.70156 4.19453 2.79297ZM10.5777 3.86445C10.8164 3.93047 11.1313 4.20469 11.2531 4.45859C11.3293 4.61094 11.3496 4.80898 11.3648 5.5707L11.3852 6.5H17.8801H24.3801L24.3648 13.6957L24.3496 20.8965L24.2176 21.1809C24.0348 21.5668 23.7605 21.8562 23.4203 22.0238C23.0445 22.2066 22.4961 22.2168 22.1305 22.0543C21.7801 21.8969 21.4652 21.577 21.2977 21.2113L21.1504 20.8965L21.1402 14.4473C21.1301 10.8977 21.1148 7.94726 21.0996 7.88125C21.0844 7.82031 20.998 7.72383 20.9066 7.66797C20.7492 7.5664 20.607 7.5664 12.2738 7.5664H3.80352L3.81875 6.07851L3.83398 4.5957L3.97109 4.35703C4.11328 4.12344 4.34688 3.94062 4.61094 3.85937C4.82422 3.79336 10.3441 3.79844 10.5777 3.86445ZM20.0078 14.7367C20.0078 21.4348 19.9977 21.1809 20.3328 21.8461L20.5105 22.1914L11.6898 22.1812L2.86914 22.166L2.63047 22.0543C2.275 21.8918 1.96523 21.577 1.79766 21.2113L1.65039 20.8965L1.63516 14.7875L1.61992 8.68359H10.8164H20.0078V14.7367Z" fill="white"/>
</svg>
