<svg width="54" height="58" viewBox="0 0 54 58" fill="none" xmlns="http://www.w3.org/2000/svg">
<path fill-rule="evenodd" clip-rule="evenodd" d="M26.9999 0.5C27.6763 0.5 28.3238 0.774063 28.7947 1.25964L52.7947 26.0096C53.4937 26.7305 53.6936 27.7997 53.3022 28.7244C52.9108 29.6492 52.0041 30.25 50.9999 30.25H45.6666C44.2859 30.25 43.1666 29.1307 43.1666 27.75C43.1666 26.5478 44.0151 25.5438 45.146 25.3043L26.9999 6.5912L8.85392 25.3043C9.98474 25.5438 10.8333 26.5478 10.8333 27.75V47C10.8333 47.82 11.1499 48.5916 11.6901 49.1487C12.2278 49.7032 12.9404 50 13.6666 50H16.4999V36C16.4999 33.9027 17.3071 31.8763 18.7673 30.3705C20.23 28.8622 22.2305 28 24.3333 28H29.6666C30.6402 28 31.5784 28.1832 32.4427 28.5185C33.73 29.0178 34.3687 30.4661 33.8694 31.7534C33.3701 33.0406 31.9218 33.6794 30.6345 33.18C30.3361 33.0643 30.0104 33 29.6666 33H24.3333C23.6071 33 22.8945 33.2968 22.3568 33.8513C21.8166 34.4084 21.4999 35.18 21.4999 36V50H26.9999C28.3807 50 29.4999 51.1193 29.4999 52.5C29.4999 53.8807 28.3807 55 26.9999 55H13.6666C11.5638 55 9.56331 54.1378 8.10062 52.6295C6.64047 51.1237 5.83328 49.0973 5.83328 47V30.25H2.99994C1.99578 30.25 1.08907 29.6492 0.697671 28.7244C0.306271 27.7997 0.50615 26.7305 1.20519 26.0096L25.2052 1.25964C25.6761 0.774063 26.3236 0.5 26.9999 0.5ZM36.4999 41.5C36.4999 40.1193 37.6192 39 38.9999 39H50.9999C52.3807 39 53.4999 40.1193 53.4999 41.5V53.875C53.4999 55.2557 52.3807 56.375 50.9999 56.375C49.6192 56.375 48.4999 55.2557 48.4999 53.875V47.6693L39.4614 56.9904C38.5002 57.9816 36.9175 58.0059 35.9262 57.0448C34.935 56.0836 34.9107 54.5009 35.8719 53.5096L45.0933 44H38.9999C37.6192 44 36.4999 42.8807 36.4999 41.5Z" fill="white"/>
</svg>
