<svg width="53" height="57" viewBox="0 0 53 57" fill="none" xmlns="http://www.w3.org/2000/svg">
<path fill-rule="evenodd" clip-rule="evenodd" d="M26.6251 0.5C27.3083 0.5 27.9617 0.779608 28.4335 1.27381L49.4334 23.2738C50.3868 24.2726 50.35 25.855 49.3512 26.8084C48.3525 27.7617 46.77 27.7249 45.8167 26.7262L26.6251 6.62069L8.7873 25.3079C9.90982 25.5537 10.7501 26.5537 10.7501 27.75V47C10.7501 47.8322 11.0667 48.6083 11.5961 49.1629C12.1218 49.7136 12.8092 50 13.5001 50H16.2501V36C16.2501 33.9148 17.0397 31.893 18.4794 30.3847C19.9228 28.8725 21.9061 28 24.0001 28H28.2001C29.5808 28 30.7001 29.1193 30.7001 30.5C30.7001 31.8807 29.5808 33 28.2001 33H24.0001C23.3092 33 22.6218 33.2864 22.0961 33.8371C21.5667 34.3917 21.2501 35.1678 21.2501 36V50H24.4174C25.7981 50 26.9174 51.1193 26.9174 52.5C26.9174 53.8807 25.7981 55 24.4174 55H13.5001C11.4061 55 9.42284 54.1275 7.97936 52.6153C6.53965 51.107 5.75006 49.0852 5.75006 47V30.25H3.00006C1.99948 30.25 1.09527 29.6534 0.70164 28.7335C0.308012 27.8136 0.500792 26.7476 1.19167 26.0238L24.8167 1.27381C25.2884 0.779608 25.9419 0.5 26.6251 0.5ZM42.3751 32.125C43.7558 32.125 44.8751 33.2443 44.8751 34.625V36.6774C45.8348 37.015 46.7234 37.5446 47.4883 38.2377L49.0412 37.2984C50.2226 36.5838 51.7596 36.9622 52.4742 38.1436C53.1888 39.325 52.8104 40.862 51.629 41.5766L49.9561 42.5885C50.0678 43.1319 50.1251 43.6886 50.1251 44.25C50.1251 44.8111 50.0679 45.3676 49.9563 45.9108L51.6309 46.9229C52.8125 47.6371 53.1915 49.174 52.4773 50.3556C51.7631 51.5373 50.2262 51.9163 49.0446 51.2021L47.4889 50.2618C46.7239 50.9551 45.835 51.4849 44.8751 51.8226V53.875C44.8751 55.2557 43.7558 56.375 42.3751 56.375C40.9944 56.375 39.8751 55.2557 39.8751 53.875V51.8226C38.9165 51.4854 38.0288 50.9566 37.2645 50.2648L35.7137 51.2021C34.5321 51.9163 32.9952 51.5373 32.281 50.3556C31.5668 49.174 31.9458 47.6371 33.1274 46.9229L34.7948 45.9152C34.6825 45.3706 34.6251 44.8126 34.6251 44.25C34.6251 43.6874 34.6825 43.1294 34.7948 42.5848L33.1274 41.5771C31.9458 40.8629 31.5668 39.326 32.281 38.1444C32.9952 36.9627 34.5321 36.5837 35.7137 37.2979L37.2645 38.2352C38.0288 37.5434 38.9165 37.0146 39.8751 36.6774V34.625C39.8751 33.2443 40.9944 32.125 42.3751 32.125ZM39.9692 42.7988C39.9704 42.797 39.9715 42.795 39.9727 42.7931C40.0085 42.7339 40.0415 42.6737 40.0719 42.6128C40.186 42.4221 40.3199 42.2456 40.4711 42.0871C40.9968 41.5364 41.6842 41.25 42.3751 41.25C43.0659 41.25 43.7533 41.5364 44.279 42.0871C44.8084 42.6417 45.1251 43.4178 45.1251 44.25C45.1251 45.0822 44.8084 45.8583 44.279 46.4129C43.7533 46.9636 43.0659 47.25 42.3751 47.25C41.6842 47.25 40.9968 46.9636 40.4711 46.4129C40.3199 46.2544 40.186 46.0779 40.0719 45.8872C40.0415 45.8263 40.0085 45.7661 39.9727 45.7069C39.9715 45.705 39.9704 45.703 39.9692 45.7012C39.7482 45.266 39.6251 44.7689 39.6251 44.25C39.6251 43.7311 39.7482 43.234 39.9692 42.7988Z" fill="white"/>
</svg>
