<svg width="55" height="55" viewBox="0 0 55 55" fill="none" xmlns="http://www.w3.org/2000/svg">
<path fill-rule="evenodd" clip-rule="evenodd" d="M25.9822 1.23223C26.9585 0.255922 28.5414 0.255922 29.5177 1.23223L54.2677 25.9822C54.9827 26.6972 55.1966 27.7725 54.8097 28.7067C54.4227 29.6409 53.5111 30.25 52.5 30.25H49.5V47C49.5 49.1217 48.6571 51.1566 47.1568 52.6569C45.6565 54.1571 43.6217 55 41.5 55H14C11.8782 55 9.84339 54.1571 8.3431 52.6569C6.84281 51.1566 5.99995 49.1217 5.99995 47V30.25H2.99995C1.9888 30.25 1.0772 29.6409 0.690252 28.7067C0.3033 27.7725 0.517189 26.6972 1.23218 25.9822L25.9822 1.23223ZM8.98789 25.2976C10.135 25.5245 11 26.5363 11 27.75V47C11 47.7957 11.316 48.5587 11.8786 49.1213C12.4412 49.6839 13.2043 50 14 50H17V36C17 33.8783 17.8428 31.8434 19.3431 30.3431C20.8434 28.8429 22.8782 28 25 28H30.5C32.6217 28 34.6565 28.8429 36.1568 30.3431C37.6571 31.8434 38.5 33.8783 38.5 36V50H41.5C42.2956 50 43.0587 49.6839 43.6213 49.1213C44.1839 48.5587 44.5 47.7956 44.5 47V27.75C44.5 26.5363 45.3649 25.5245 46.512 25.2976L27.75 6.53553L8.98789 25.2976ZM33.5 50V36C33.5 35.2044 33.1839 34.4413 32.6213 33.8787C32.0587 33.3161 31.2956 33 30.5 33H25C24.2043 33 23.4412 33.3161 22.8786 33.8787C22.316 34.4413 22 35.2044 22 36V50H33.5Z" fill="white"/>
</svg>
