<svg width="53" height="47" viewBox="0 0 53 47" fill="none" xmlns="http://www.w3.org/2000/svg">
<path fill-rule="evenodd" clip-rule="evenodd" d="M13.7258 2.9226C14.8165 2.779 15.9253 2.96207 16.912 3.44865C17.3241 3.65187 17.7072 3.90422 18.0536 4.19861C16.8489 5.86466 16.1389 7.91191 16.1389 10.125C16.1389 11.3145 16.344 12.456 16.7208 13.5162C15.8973 13.8841 14.9938 14.0475 14.088 13.9881C12.9902 13.9161 11.9384 13.5203 11.0656 12.8505C10.1928 12.1808 9.53815 11.2673 9.18452 10.2255C8.83088 9.18374 8.79411 8.0605 9.07885 6.99783C9.36359 5.93516 9.95706 4.98078 10.7842 4.2554C11.6113 3.53001 12.635 3.0662 13.7258 2.9226ZM18.1836 0.870144C18.864 1.20568 19.4922 1.6295 20.0535 2.12778C21.7683 0.794191 23.9233 8.76329e-06 26.2639 8.76329e-06C28.6045 8.76329e-06 30.7595 0.794191 32.4743 2.12778C33.0356 1.6295 33.6638 1.20568 34.3442 0.870144C35.8409 0.132061 37.5228 -0.145628 39.1773 0.0721915C40.8318 0.290011 42.3846 0.993557 43.6392 2.09386C44.8939 3.19416 45.7941 4.64181 46.226 6.25372C46.6579 7.86564 46.6021 9.56944 46.0657 11.1497C45.5293 12.7299 44.5364 14.1155 43.2124 15.1314C41.8885 16.1473 40.293 16.7478 38.6278 16.8569C37.1917 16.9511 35.7594 16.6761 34.4654 16.0635C32.6255 18.6002 29.6374 20.25 26.2639 20.25C22.8905 20.25 19.9024 18.6002 18.0624 16.0635C16.7684 16.6761 15.3361 16.9511 13.9 16.8569C12.2348 16.7478 10.6393 16.1473 9.31539 15.1314C7.99146 14.1155 6.9985 12.7299 6.46209 11.1497C5.92568 9.56944 5.8699 7.86564 6.30182 6.25372C6.73373 4.64181 7.63393 3.19416 8.88858 2.09386C10.1432 0.993557 11.696 0.290011 13.3505 0.0721915C15.005 -0.145628 16.6869 0.132061 18.1836 0.870144ZM35.6158 3.44865C36.6025 2.96207 37.7113 2.779 38.8021 2.9226C39.8928 3.0662 40.9165 3.53001 41.7436 4.2554C42.5708 4.98078 43.1642 5.93516 43.449 6.99783C43.7337 8.0605 43.6969 9.18374 43.3433 10.2255C42.9897 11.2673 42.3351 12.1808 41.4622 12.8505C40.5894 13.5203 39.5376 13.9161 38.4398 13.9881C37.534 14.0475 36.6305 13.8841 35.807 13.5162C36.1838 12.456 36.3889 11.3145 36.3889 10.125C36.3889 7.91191 35.6789 5.86466 34.4742 4.19861C34.8206 3.90422 35.2037 3.65187 35.6158 3.44865ZM33.5139 10.125C33.5139 14.1291 30.268 17.375 26.2639 17.375C22.2598 17.375 19.0139 14.1291 19.0139 10.125C19.0139 6.12094 22.2598 2.87501 26.2639 2.87501C30.268 2.87501 33.5139 6.12094 33.5139 10.125ZM10.3431 38.6026C10.9537 36.6783 11.8693 34.621 13.2394 32.7739C13.4573 32.48 13.6873 32.1908 13.93 31.9076C15.9392 29.5695 18.7869 27.6927 22.8309 27.0206L22.8913 27.0105C23.9314 26.8412 25.0534 26.75 26.2643 26.75C27.7088 26.75 29.0268 26.8798 30.2302 27.1172C33.7809 27.8182 36.3723 29.4717 38.2664 31.5327C38.634 31.9338 38.9741 32.3491 39.2893 32.7739C41.7924 36.1485 42.7786 40.2247 43.159 42.9095C43.2429 43.5014 42.7855 44.125 41.9518 44.125H10.5768C9.74313 44.125 9.28571 43.5014 9.36959 42.9095C9.51696 41.8695 9.75524 40.6207 10.1374 39.2847L10.1584 39.212C10.2168 39.0103 10.2783 38.807 10.3431 38.6026ZM6.93005 40.25H4.12839C1.61614 40.25 -0.511498 38.0311 0.108625 35.3651C0.693773 32.8494 1.8415 29.2001 4.02376 26.1488C6.23453 23.0577 9.57899 20.5 14.4516 20.5C18.1545 20.5 20.9934 21.9819 23.1168 24.0724C24.1087 23.9433 25.1569 23.875 26.2643 23.875C27.372 23.875 28.4204 23.9433 29.4125 24.0725C31.536 21.982 34.3749 20.5 38.0779 20.5C42.9505 20.5 46.295 23.0577 48.5057 26.1488C50.688 29.2001 51.8357 32.8494 52.4208 35.3651C53.0409 38.0311 50.9133 40.25 48.401 40.25H45.5986C45.7798 41.0744 45.9107 41.8364 46.0056 42.5061C46.3673 45.0584 44.2938 47 41.9518 47H10.5768C8.23487 47 6.16135 45.0584 6.52303 42.5061C6.61793 41.8364 6.74883 41.0744 6.93005 40.25ZM11.921 29.8372C11.57 30.2345 11.2401 30.6434 10.9303 31.0611C9.42399 33.0918 8.40689 35.3079 7.71906 37.375H4.12839C3.23882 37.375 2.75831 36.6637 2.90887 36.0164C3.45821 33.6547 4.49844 30.4273 6.36223 27.8213C8.19751 25.2552 10.7572 23.375 14.4516 23.375C16.4761 23.375 18.1504 23.9374 19.5506 24.8593C16.2595 25.915 13.7828 27.725 11.921 29.8372ZM41.5984 31.0611C42.941 32.8712 43.895 34.8285 44.5735 36.6964C44.6565 36.9243 44.7352 37.1507 44.81 37.375H48.401C49.2906 37.375 49.7711 36.6637 49.6205 36.0164C49.0712 33.6547 48.031 30.4273 46.1672 27.8213C44.332 25.2552 41.7723 23.375 38.0779 23.375C36.0534 23.375 34.3791 23.9374 32.9789 24.8593C36.5221 25.9959 39.1214 28.0068 41.0257 30.3277C41.2238 30.5687 41.4146 30.8133 41.5984 31.0611Z" fill="white"/>
</svg>
