<svg width="58" height="52" viewBox="0 0 58 52" fill="none" xmlns="http://www.w3.org/2000/svg">
<path fill-rule="evenodd" clip-rule="evenodd" d="M14 2.89544e-06L12.4118 6.31495e-07H12.4117C10.6645 -2.04702e-05 9.23445 -3.77446e-05 8.07133 0.0934302C6.86724 0.190191 5.7772 0.396648 4.75599 0.906919C3.09005 1.73934 1.73934 3.09005 0.906918 4.75599C0.396647 5.7772 0.19019 6.86724 0.0934292 8.07134C-3.96445e-05 9.23446 -2.14949e-05 10.6646 6.80215e-07 12.4117V12.4118V14C6.80215e-07 15.1046 0.895432 16 2 16C3.10457 16 4 15.1046 4 14V12.494C4 10.6445 4.00151 9.37569 4.08058 8.39174C4.15782 7.43057 4.29936 6.91561 4.4851 6.5439C4.93035 5.65282 5.65282 4.93035 6.5439 4.4851C6.91561 4.29936 7.43056 4.15782 8.39174 4.08058C9.37568 4.00151 10.6445 4 12.494 4H14C15.1046 4 16 3.10457 16 2C16 0.895434 15.1046 2.89544e-06 14 2.89544e-06ZM45.506 4C47.3555 4 48.6243 4.00151 49.6083 4.08058C50.5694 4.15782 51.0844 4.29936 51.4561 4.4851C52.3472 4.93035 53.0697 5.65282 53.5149 6.5439C53.7006 6.91561 53.8422 7.43057 53.9194 8.39174C53.9985 9.37569 54 10.6445 54 12.494V14C54 15.1046 54.8954 16 56 16C57.1046 16 58 15.1046 58 14V12.4118C58 10.6646 58 9.23449 57.9066 8.07134C57.8098 6.86724 57.6034 5.7772 57.0931 4.75599C56.2607 3.09005 54.91 1.73934 53.244 0.906919C52.2228 0.396648 51.1328 0.190191 49.9287 0.0934302C48.7656 -3.77372e-05 47.3355 -2.04702e-05 45.5883 6.31495e-07H45.5882L44 2.89544e-06C42.8954 2.89544e-06 42 0.895434 42 2C42 3.10457 42.8954 4 44 4H45.506ZM4 38C4 36.8954 3.10457 36 2 36C0.895432 36 6.80215e-07 36.8954 6.80215e-07 38V39.5882V39.5883C-2.14949e-05 41.3355 -3.9652e-05 42.7655 0.0934292 43.9287C0.19019 45.1328 0.396647 46.2228 0.906918 47.244C1.73934 48.91 3.09005 50.2607 4.75599 51.0931C5.7772 51.6034 6.86724 51.8098 8.07133 51.9066C9.23448 52 10.6646 52 12.4118 52H14C15.1046 52 16 51.1046 16 50C16 48.8954 15.1046 48 14 48H12.494C10.6445 48 9.37568 47.9985 8.39174 47.9194C7.43056 47.8422 6.91561 47.7006 6.5439 47.5149C5.65282 47.0697 4.93035 46.3472 4.4851 45.4561C4.29936 45.0844 4.15782 44.5694 4.08058 43.6083C4.00151 42.6243 4 41.3555 4 39.506V38ZM58 38C58 36.8954 57.1046 36 56 36C54.8954 36 54 36.8954 54 38V39.506C54 41.3555 53.9985 42.6243 53.9194 43.6083C53.8422 44.5694 53.7006 45.0844 53.5149 45.4561C53.0697 46.3472 52.3472 47.0697 51.4561 47.5149C51.0844 47.7006 50.5694 47.8422 49.6083 47.9194C48.6243 47.9985 47.3555 48 45.506 48H44C42.8954 48 42 48.8954 42 50C42 51.1046 42.8954 52 44 52H45.5882C47.3354 52 48.7655 52 49.9287 51.9066C51.1328 51.8098 52.2228 51.6034 53.244 51.0931C54.91 50.2607 56.2607 48.91 57.0931 47.244C57.6034 46.2228 57.8098 45.1328 57.9066 43.9287C58 42.7655 58 41.3354 58 39.5882V38ZM38 17C38 21.9706 33.9706 26 29 26C24.0294 26 20 21.9706 20 17C20 12.0294 24.0294 8 29 8C33.9706 8 38 12.0294 38 17ZM45.354 37.725C45.5263 38.0363 45.4377 38.4243 45.1528 38.6374C40.6483 42.0055 35.0571 44.0001 29 44.0001C22.9429 44.0001 17.3516 42.0055 12.8472 38.6374C12.5622 38.4243 12.4736 38.0363 12.6459 37.725C15.4964 32.5747 21.7472 29.0001 29 29.0001C36.2527 29.0001 42.5036 32.5747 45.354 37.725Z" fill="white"/>
</svg>
