<svg width="50" height="39" viewBox="0 0 50 39" fill="none" xmlns="http://www.w3.org/2000/svg">
<g clip-path="url(#clip0_0_56)">
<path d="M33.063 20.9214C36.4765 20.9214 39.2113 17.9911 39.2113 14.361C39.2113 10.7308 36.4765 7.80045 33.063 7.80045C29.6496 7.80045 26.8942 10.7308 26.8942 14.361C26.8942 17.9911 29.6496 20.9214 33.063 20.9214ZM16.6128 20.9214C20.0262 20.9214 22.7611 17.9911 22.7611 14.361C22.7611 10.7308 20.0262 7.80045 16.6128 7.80045C13.1994 7.80045 10.444 10.7308 10.444 14.361C10.444 17.9911 13.1994 20.9214 16.6128 20.9214ZM16.6128 25.2951C11.8217 25.2951 2.21887 27.8537 2.21887 32.949V38.4161H31.0067V32.949C31.0067 27.8537 21.4039 25.2951 16.6128 25.2951ZM33.063 25.2951C32.4667 25.2951 31.7882 25.3389 31.0684 25.4045C33.4537 27.2414 35.1193 29.7125 35.1193 32.949V38.4161H47.457V32.949C47.457 27.8537 37.8541 25.2951 33.063 25.2951Z" fill="white"/>
</g>
<defs>
<clipPath id="clip0_0_56">
<rect width="50" height="38.3117" fill="white"/>
</clipPath>
</defs>
</svg>
