<svg width="50" height="53" viewBox="0 0 50 53" fill="none" xmlns="http://www.w3.org/2000/svg">
<g clip-path="url(#clip0_0_60)">
<path d="M25.4772 25.9112C29.5821 25.9112 32.9097 22.6712 32.9097 18.6744C32.9097 14.6776 29.5821 11.4376 25.4772 11.4376C21.3723 11.4376 18.0447 14.6776 18.0447 18.6744C18.0447 22.6712 21.3723 25.9112 25.4772 25.9112Z" fill="white"/>
<path fill-rule="evenodd" clip-rule="evenodd" d="M15.7531 18.6744C15.7531 13.3547 20.1647 9.14592 25.4772 9.14592C30.7898 9.14592 35.2014 13.3547 35.2014 18.6744C35.2014 23.994 30.7898 28.2029 25.4772 28.2029C20.1646 28.2029 15.7531 23.994 15.7531 18.6744ZM25.4772 13.7293C22.5799 13.7293 20.3364 16.0005 20.3364 18.6744C20.3364 21.3483 22.58 23.6196 25.4772 23.6196C28.3745 23.6196 30.6181 21.3483 30.6181 18.6744C30.6181 16.0005 28.3745 13.7293 25.4772 13.7293Z" fill="white"/>
<path fill-rule="evenodd" clip-rule="evenodd" d="M23.3534 35.4399C13.7417 35.4399 6.53279 42.1189 6.53279 49.6896C6.53279 50.9552 5.50678 51.9812 4.24113 51.9812C2.97548 51.9812 1.94946 50.9552 1.94946 49.6896C1.94946 38.9883 11.8545 30.8565 23.3534 30.8565C24.619 30.8565 25.645 31.8826 25.645 33.1482C25.645 34.4139 24.619 35.4399 23.3534 35.4399Z" fill="white"/>
<path d="M32.9085 50.7233L43.5264 40.385L39.2792 36.2496L28.6613 46.588V50.7233H32.9085Z" fill="white"/>
<path fill-rule="evenodd" clip-rule="evenodd" d="M37.6804 34.6077C38.5702 33.7414 39.9881 33.7414 40.8778 34.6077L45.1251 38.7431C45.5681 39.1745 45.818 39.7666 45.818 40.385C45.818 41.0034 45.5681 41.5955 45.1251 42.0269L34.5071 52.3652C34.0792 52.7818 33.5056 53.015 32.9084 53.015H28.6613C27.3956 53.015 26.3696 51.989 26.3696 50.7233V46.588C26.3696 45.9697 26.6195 45.3775 27.0626 44.9461L37.6804 34.6077ZM39.2792 39.4482L30.953 47.5552V48.4316H31.9771L40.2414 40.385L39.2792 39.4482Z" fill="white"/>
</g>
<defs>
<clipPath id="clip0_0_60">
<rect width="50" height="52.6786" fill="white"/>
</clipPath>
</defs>
</svg>
