<svg width="26" height="26" viewBox="0 0 26 26" fill="none" xmlns="http://www.w3.org/2000/svg">
<path fill-rule="evenodd" clip-rule="evenodd" d="M25.5 13C25.5 19.9038 19.9038 25.5 13 25.5C6.09625 25.5 0.5 19.9038 0.5 13C0.5 6.09625 6.09625 0.5 13 0.5C19.9038 0.5 25.5 6.09625 25.5 13ZM8.13875 17.8613C8.02158 17.744 7.95576 17.5851 7.95576 17.4194C7.95576 17.2536 8.02158 17.0947 8.13875 16.9775L12.1163 13L8.13875 9.0225C8.0249 8.90462 7.96191 8.74675 7.96333 8.58287C7.96475 8.419 8.03048 8.26224 8.14636 8.14636C8.26224 8.03048 8.419 7.96475 8.58287 7.96333C8.74675 7.96191 8.90462 8.0249 9.0225 8.13875L13 12.1163L16.9775 8.13875C17.0954 8.0249 17.2533 7.96191 17.4171 7.96333C17.581 7.96475 17.7378 8.03048 17.8536 8.14636C17.9695 8.26224 18.0352 8.419 18.0367 8.58287C18.0381 8.74675 17.9751 8.90462 17.8613 9.0225L13.8838 13L17.8613 16.9775C17.9751 17.0954 18.0381 17.2533 18.0367 17.4171C18.0352 17.581 17.9695 17.7378 17.8536 17.8536C17.7378 17.9695 17.581 18.0352 17.4171 18.0367C17.2533 18.0381 17.0954 17.9751 16.9775 17.8613L13 13.8838L9.0225 17.8613C8.9053 17.9784 8.74635 18.0442 8.58063 18.0442C8.4149 18.0442 8.25596 17.9784 8.13875 17.8613Z" fill="#C3C3C3"/>
</svg>
