<svg width="50" height="50" viewBox="0 0 50 50" fill="none" xmlns="http://www.w3.org/2000/svg">
<path d="M23.1558 24.5902C20.9017 24.5902 18.972 23.7875 17.3668 22.1824C15.7617 20.5772 14.9591 18.6475 14.9591 16.3934C14.9591 14.1393 15.7617 12.2097 17.3668 10.6045C18.972 8.99935 20.9017 8.19672 23.1558 8.19672C25.4099 8.19672 27.3395 8.99935 28.9447 10.6045C30.5499 12.2097 31.3525 14.1393 31.3525 16.3934C31.3525 18.6475 30.5499 20.5772 28.9447 22.1824C27.3395 23.7875 25.4099 24.5902 23.1558 24.5902ZM45.9017 48.1557L39.3443 41.5984C38.6271 42.0082 37.8586 42.3498 37.039 42.623C36.2193 42.8961 35.3484 43.0328 34.4263 43.0328C31.8648 43.0328 29.6879 42.1359 27.8955 40.3422C26.1032 38.5485 25.2063 36.3716 25.205 33.8115C25.205 31.25 26.1018 29.0724 27.8955 27.2787C29.6892 25.485 31.8662 24.5888 34.4263 24.5902C36.9877 24.5902 39.1654 25.4871 40.9591 27.2807C42.7527 29.0744 43.649 31.2514 43.6476 33.8115C43.6476 34.7336 43.5109 35.6045 43.2377 36.4242C42.9645 37.2439 42.623 38.0123 42.2132 38.7295L48.7705 45.2869L45.9017 48.1557ZM34.4263 38.9344C35.8607 38.9344 37.0732 38.4392 38.0636 37.4488C39.054 36.4584 39.5492 35.2459 39.5492 33.8115C39.5492 32.3771 39.054 31.1646 38.0636 30.1742C37.0732 29.1838 35.8607 28.6885 34.4263 28.6885C32.9918 28.6885 31.7794 29.1838 30.789 30.1742C29.7986 31.1646 29.3033 32.3771 29.3033 33.8115C29.3033 35.2459 29.7986 36.4584 30.789 37.4488C31.7794 38.4392 32.9918 38.9344 34.4263 38.9344ZM23.207 26.6393C21.7726 28.7568 21.0554 31.1475 21.0554 33.8115C21.0554 36.4754 21.7726 38.8661 23.207 40.9836H6.76233V35.2971C6.76233 34.1359 7.05263 33.0601 7.63323 32.0697C8.2138 31.0793 9.01643 30.3279 10.041 29.8156C11.7828 28.9276 13.7466 28.1762 15.9324 27.5615C18.1182 26.9467 20.5431 26.6393 23.207 26.6393Z" fill="white"/>
</svg>
