<svg width="50" height="50" viewBox="0 0 50 50" fill="none" xmlns="http://www.w3.org/2000/svg">
<g clip-path="url(#clip0_0_94)">
<path d="M40.2551 33.1395H35.2551V38.6951H40.2551M40.2551 22.0284H35.2551V27.584H40.2551M45.2551 44.2506H25.2551V38.6951H30.2551V33.1395H25.2551V27.584H30.2551V22.0284H25.2551V16.4729H45.2551M20.2551 10.9172H15.2551V5.36173H20.2551M20.2551 22.0284H15.2551V16.4729H20.2551M20.2551 33.1395H15.2551V27.584H20.2551M20.2551 44.2506H15.2551V38.6951H20.2551M10.2551 10.9172H5.25513V5.36173H10.2551M10.2551 22.0284H5.25513V16.4729H10.2551M10.2551 33.1395H5.25513V27.584H10.2551M10.2551 44.2506H5.25513V38.6951H10.2551M25.2551 10.9172V-0.193817H0.255127V49.8062H50.2551V10.9172H25.2551Z" fill="white"/>
</g>
<defs>
<clipPath id="clip0_0_94">
<rect width="50" height="50" fill="white"/>
</clipPath>
</defs>
</svg>
