<svg width="54" height="54" viewBox="0 0 54 54" fill="none" xmlns="http://www.w3.org/2000/svg">
<path fill-rule="evenodd" clip-rule="evenodd" d="M25.9496 0.548942C26.6204 0.261457 27.3797 0.261457 28.0505 0.548942L46.7172 8.54894C48.0708 9.12909 48.6979 10.6968 48.1178 12.0504C47.5376 13.4041 45.9699 14.0312 44.6163 13.451L27 5.90124L9.38383 13.451C8.03015 14.0312 6.46247 13.4041 5.88232 12.0504C5.30217 10.6968 5.92924 9.12909 7.28292 8.54894L25.9496 0.548942ZM0.333374 21.6667C0.333374 20.1939 1.52728 19 3.00004 19H51C52.4728 19 53.6667 20.1939 53.6667 21.6667C53.6667 23.1394 52.4728 24.3333 51 24.3333V48.3333C52.4728 48.3333 53.6667 49.5272 53.6667 51C53.6667 52.4728 52.4728 53.6667 51 53.6667H3.00004C1.52728 53.6667 0.333374 52.4728 0.333374 51C0.333374 49.5272 1.52728 48.3333 3.00004 48.3333V24.3333C1.52728 24.3333 0.333374 23.1394 0.333374 21.6667ZM8.33337 24.3333V48.3333H45.6667V24.3333H8.33337ZM16.3334 29.6667C17.8061 29.6667 19 30.8606 19 32.3333V40.3333C19 41.8061 17.8061 43 16.3334 43C14.8606 43 13.6667 41.8061 13.6667 40.3333V32.3333C13.6667 30.8606 14.8606 29.6667 16.3334 29.6667ZM27 29.6667C28.4728 29.6667 29.6667 30.8606 29.6667 32.3333V40.3333C29.6667 41.8061 28.4728 43 27 43C25.5273 43 24.3334 41.8061 24.3334 40.3333V32.3333C24.3334 30.8606 25.5273 29.6667 27 29.6667ZM37.6667 29.6667C39.1395 29.6667 40.3334 30.8606 40.3334 32.3333V40.3333C40.3334 41.8061 39.1395 43 37.6667 43C36.194 43 35 41.8061 35 40.3333V32.3333C35 30.8606 36.194 29.6667 37.6667 29.6667Z" fill="white"/>
</svg>
