<svg width="45" height="30" viewBox="0 0 45 30" fill="none" xmlns="http://www.w3.org/2000/svg">
<g clip-path="url(#clip0_0_56)">
<path d="M31.063 12.9214C34.4765 12.9214 37.2113 9.99109 37.2113 6.36096C37.2113 2.73077 34.4765 -0.199554 31.063 -0.199554C27.6496 -0.199554 24.8942 2.73077 24.8942 6.36096C24.8942 9.99109 27.6496 12.9214 31.063 12.9214ZM14.6128 12.9214C18.0262 12.9214 20.7611 9.99109 20.7611 6.36096C20.7611 2.73077 18.0262 -0.199554 14.6128 -0.199554C11.1994 -0.199554 8.44401 2.73077 8.44401 6.36096C8.44401 9.99109 11.1994 12.9214 14.6128 12.9214ZM14.6128 17.2951C9.82167 17.2951 0.218872 19.8537 0.218872 24.949V30.4161H29.0067V24.949C29.0067 19.8537 19.4039 17.2951 14.6128 17.2951ZM31.063 17.2951C30.4667 17.2951 29.7882 17.3389 29.0684 17.4045C31.4537 19.2414 33.1193 21.7125 33.1193 24.949V30.4161H45.457V24.949C45.457 19.8537 35.8541 17.2951 31.063 17.2951Z" fill="white"/>
</g>
<defs>
<clipPath id="clip0_0_56">
<rect width="45" height="30" fill="white"/>
</clipPath>
</defs>
</svg>
