<svg width="24" height="24" viewBox="0 0 24 24" fill="none" xmlns="http://www.w3.org/2000/svg">
<path fill-rule="evenodd" clip-rule="evenodd" d="M4.23223 1.98223C4.70107 1.51339 5.33696 1.25 6 1.25H18C18.663 1.25 19.2989 1.51339 19.7678 1.98223C20.2366 2.45107 20.5 3.08696 20.5 3.75V20.25C20.5 20.913 20.2366 21.5489 19.7678 22.0178C19.2989 22.4866 18.663 22.75 18 22.75H6C5.33696 22.75 4.70107 22.4866 4.23223 22.0178C3.76339 21.5489 3.5 20.913 3.5 20.25V3.75C3.5 3.08696 3.76339 2.45107 4.23223 1.98223ZM6 3.25C5.86739 3.25 5.74021 3.30268 5.64645 3.39645C5.55268 3.49021 5.5 3.61739 5.5 3.75V20.25C5.5 20.3826 5.55268 20.5098 5.64645 20.6036C5.74022 20.6973 5.86739 20.75 6 20.75H18C18.1326 20.75 18.2598 20.6973 18.3536 20.6036C18.4473 20.5098 18.5 20.3826 18.5 20.25V3.75C18.5 3.61739 18.4473 3.49022 18.3536 3.39645C18.2598 3.30268 18.1326 3.25 18 3.25H6ZM6.5 6.75C6.5 6.19772 6.94772 5.75 7.5 5.75H10.5C11.0523 5.75 11.5 6.19772 11.5 6.75C11.5 7.30228 11.0523 7.75 10.5 7.75H7.5C6.94772 7.75 6.5 7.30228 6.5 6.75ZM6.5 12C6.5 11.4477 6.94772 11 7.5 11H16.5C17.0523 11 17.5 11.4477 17.5 12C17.5 12.5523 17.0523 13 16.5 13H7.5C6.94772 13 6.5 12.5523 6.5 12ZM6.5 15C6.5 14.4477 6.94772 14 7.5 14H16.5C17.0523 14 17.5 14.4477 17.5 15C17.5 15.5523 17.0523 16 16.5 16H7.5C6.94772 16 6.5 15.5523 6.5 15ZM6.5 18C6.5 17.4477 6.94772 17 7.5 17H10.5C11.0523 17 11.5 17.4477 11.5 18C11.5 18.5523 11.0523 19 10.5 19H7.5C6.94772 19 6.5 18.5523 6.5 18Z" fill="white"/>
<path d="M16.5 7.125C16.7071 7.125 16.875 6.95711 16.875 6.75C16.875 6.54289 16.7071 6.375 16.5 6.375C16.2929 6.375 16.125 6.54289 16.125 6.75C16.125 6.95711 16.2929 7.125 16.5 7.125Z" fill="white"/>
<path fill-rule="evenodd" clip-rule="evenodd" d="M16.5 6.875C16.569 6.875 16.625 6.81904 16.625 6.75C16.625 6.68096 16.569 6.625 16.5 6.625C16.431 6.625 16.375 6.68096 16.375 6.75C16.375 6.81904 16.431 6.875 16.5 6.875ZM15.625 6.75C15.625 6.26675 16.0168 5.875 16.5 5.875C16.9832 5.875 17.375 6.26675 17.375 6.75C17.375 7.23325 16.9832 7.625 16.5 7.625C16.0168 7.625 15.625 7.23325 15.625 6.75Z" fill="white"/>
</svg>
