<svg width="45" height="45" viewBox="0 0 45 45" fill="none" xmlns="http://www.w3.org/2000/svg">
<path fill-rule="evenodd" clip-rule="evenodd" d="M5.50997 1.84677C7.34542 0.0113227 10.3213 0.011325 12.1567 1.84677L18.6667 8.35674C20.5867 10.2768 20.5867 13.3899 18.6667 15.31L16.7503 17.2263C19.3214 22.0079 23.2421 25.9286 28.0237 28.4997L29.9401 26.5833C31.8601 24.6633 34.9732 24.6633 36.8933 26.5833L43.4032 33.0933C45.2387 34.9288 45.2387 37.9046 43.4032 39.74C37.8054 45.3379 28.9431 45.9677 22.6098 41.2178L18.7369 38.3131C14.2644 34.9587 10.2913 30.9856 6.9369 26.5131L4.03223 22.6402C-0.717742 16.3069 -0.0879197 7.44466 5.50997 1.84677ZM8.83482 5.47811C5.10796 9.3529 4.72709 15.3722 7.96556 19.6902L10.8702 23.5631C13.9451 27.6629 17.5871 31.3049 21.6869 34.3798L25.5598 37.2844C29.8778 40.5229 35.8971 40.1421 39.7719 36.4152L33.4167 30.06L30.9063 32.5703C29.7592 33.7174 28.0067 34.0018 26.5556 33.2763C20.2454 30.1212 15.1288 25.0046 11.9737 18.6944C11.2482 17.2434 11.5326 15.4908 12.6797 14.3437L15.1901 11.8333L8.83482 5.47811Z" fill="white"/>
</svg>
