<svg width="25.000000" height="25.000000" viewBox="0 0 25 25" fill="none" xmlns="http://www.w3.org/2000/svg" xmlns:xlink="http://www.w3.org/1999/xlink">
	<desc>
			Created with Pixso.
	</desc>
	<defs/>
	<path id="Vector" d="M25 12.5C25 19.4 19.4 25 12.5 25C5.59 25 0 19.4 0 12.5C0 5.59 5.59 0 12.5 0C19.4 0 25 5.59 25 12.5ZM7.63 17.36C7.52 17.24 7.45 17.08 7.45 16.91C7.45 16.75 7.52 16.59 7.63 16.47L11.61 12.5L7.63 8.52C7.52 8.4 7.46 8.24 7.46 8.08C7.46 7.91 7.53 7.76 7.64 7.64C7.76 7.53 7.91 7.46 8.08 7.46C8.24 7.46 8.4 7.52 8.52 7.63L12.5 11.61L16.47 7.63C16.59 7.52 16.75 7.46 16.91 7.46C17.08 7.46 17.23 7.53 17.35 7.64C17.46 7.76 17.53 7.91 17.53 8.08C17.53 8.24 17.47 8.4 17.36 8.52L13.38 12.5L17.36 16.47C17.47 16.59 17.53 16.75 17.53 16.91C17.53 17.08 17.46 17.23 17.35 17.35C17.23 17.46 17.08 17.53 16.91 17.53C16.75 17.53 16.59 17.47 16.47 17.36L12.5 13.38L8.52 17.36C8.4 17.47 8.24 17.54 8.08 17.54C7.91 17.54 7.75 17.47 7.63 17.36Z" fill="#C3C3C3" fill-opacity="1.000000" fill-rule="evenodd"/>
</svg>
