<svg width="20" height="21" viewBox="0 0 20 21" fill="none" xmlns="http://www.w3.org/2000/svg">
<path d="M19.432 19.2163L14.004 13.5523C15.3083 11.9183 15.9588 9.82245 15.82 7.70075C15.6812 5.57905 14.7639 3.59486 13.2588 2.16096C11.7537 0.727051 9.7768 -0.0461741 7.7393 0.00213463C5.7018 0.0504433 3.76058 0.916566 2.31948 2.42033C0.878376 3.92408 0.0483415 5.9497 0.00204569 8.07579C-0.0442502 10.2019 0.696757 12.2647 2.07092 13.8353C3.44508 15.4058 5.34659 16.363 7.37988 16.5078C9.41318 16.6526 11.4217 15.9739 12.9876 14.6128L18.4156 20.2768L19.432 19.2163ZM1.4632 8.27682C1.4632 6.9418 1.84259 5.63675 2.55338 4.52672C3.26418 3.41669 4.27446 2.55152 5.45647 2.04063C6.63848 1.52974 7.93913 1.39607 9.19394 1.65652C10.4488 1.91697 11.6014 2.55984 12.506 3.50385C13.4107 4.44785 14.0268 5.65059 14.2764 6.95996C14.526 8.26933 14.3979 9.62653 13.9083 10.8599C13.4187 12.0933 12.5896 13.1475 11.5258 13.8892C10.462 14.6309 9.21135 15.0268 7.93195 15.0268C6.21692 15.0248 4.57267 14.313 3.35996 13.0476C2.14724 11.7822 1.46511 10.0664 1.4632 8.27682Z" fill="white"/>
</svg>
