<svg width="43" height="40" viewBox="0 0 43 40" fill="none" xmlns="http://www.w3.org/2000/svg">
<g clip-path="url(#clip0_0_90)">
<path d="M16.1558 16.5902C13.9017 16.5902 11.972 15.7875 10.3668 14.1824C8.76167 12.5772 7.95905 10.6475 7.95905 8.39344C7.95905 6.13934 8.76167 4.20967 10.3668 2.6045C11.972 0.999339 13.9017 0.196716 16.1558 0.196716C18.4099 0.196716 20.3395 0.999339 21.9447 2.6045C23.5499 4.20967 24.3525 6.13934 24.3525 8.39344C24.3525 10.6475 23.5499 12.5772 21.9447 14.1824C20.3395 15.7875 18.4099 16.5902 16.1558 16.5902ZM38.9017 40.1557L32.3443 33.5984C31.6271 34.0082 30.8586 34.3497 30.039 34.6229C29.2193 34.8961 28.3484 35.0328 27.4263 35.0328C24.8648 35.0328 22.6879 34.1359 20.8955 32.3422C19.1031 30.5485 18.2063 28.3716 18.205 25.8115C18.205 23.25 19.1018 21.0724 20.8955 19.2787C22.6892 17.485 24.8662 16.5888 27.4263 16.5902C29.9877 16.5902 32.1654 17.487 33.9591 19.2807C35.7527 21.0744 36.649 23.2514 36.6476 25.8115C36.6476 26.7336 36.5109 27.6045 36.2377 28.4242C35.9645 29.2438 35.623 30.0123 35.2132 30.7295L41.7705 37.2869L38.9017 40.1557ZM27.4263 30.9344C28.8607 30.9344 30.0732 30.4392 31.0636 29.4488C32.054 28.4584 32.5492 27.2459 32.5492 25.8115C32.5492 24.377 32.054 23.1646 31.0636 22.1742C30.0732 21.1838 28.8607 20.6885 27.4263 20.6885C25.9918 20.6885 24.7794 21.1838 23.789 22.1742C22.7986 23.1646 22.3033 24.377 22.3033 25.8115C22.3033 27.2459 22.7986 28.4584 23.789 29.4488C24.7794 30.4392 25.9918 30.9344 27.4263 30.9344ZM16.207 18.6393C14.7726 20.7568 14.0554 23.1475 14.0554 25.8115C14.0554 28.4754 14.7726 30.8661 16.207 32.9836H-0.237671V27.2971C-0.237671 26.1359 0.0526325 25.0601 0.633231 24.0697C1.2138 23.0793 2.01643 22.3279 3.04102 21.8156C4.78282 20.9276 6.74659 20.1762 8.93241 19.5615C11.1182 18.9467 13.5431 18.6393 16.207 18.6393Z" fill="white"/>
</g>
<defs>
<clipPath id="clip0_0_90">
<rect width="43" height="40" fill="white"/>
</clipPath>
</defs>
</svg>
