<svg width="21" height="21" viewBox="0 0 21 21" fill="none" xmlns="http://www.w3.org/2000/svg">
<g clip-path="url(#clip0_1_115)">
<path d="M6.72247 2.00566C6.32872 2.16152 6.03751 2.49785 5.95138 2.91211C5.91447 3.08027 5.90626 4.33945 5.91447 7.83398L5.92677 12.5303L6.02521 12.7436C6.14826 13.0225 6.44357 13.2932 6.73888 13.408C6.97677 13.4941 6.97677 13.4941 11.2547 13.4941H15.5367L15.9592 14.1996C16.1889 14.5893 16.6277 15.3316 16.9354 15.8443C17.2799 16.4268 17.5383 16.8164 17.6121 16.8697C17.6818 16.9189 17.8172 16.96 17.9402 16.9723C18.1166 16.9846 18.1781 16.9682 18.3217 16.8738C18.617 16.677 18.6211 16.6523 18.6211 14.9748V13.5023L19.3512 13.4859C19.9828 13.4736 20.1018 13.4613 20.2658 13.3875C20.5406 13.2604 20.7334 13.0676 20.877 12.7887L21 12.5385V7.73144C21 2.34199 21.0205 2.71113 20.6924 2.34609C20.5981 2.23945 20.4299 2.1082 20.3192 2.05078L20.1182 1.94824L13.5147 1.94004C7.25158 1.93184 6.90294 1.93594 6.72247 2.00566ZM17.7393 4.9998C18.0141 5.12695 18.211 5.41816 18.211 5.68887C18.2068 5.98418 17.9402 6.31641 17.6367 6.39844C17.5301 6.42715 16.1356 6.43535 13.3834 6.43125L9.29005 6.41894L9.12599 6.32461C8.86759 6.17695 8.75685 5.98418 8.75685 5.68066C8.75685 5.36484 8.8881 5.13926 9.1547 5.00801L9.33107 4.92187H13.4531C17.3742 4.92187 17.5834 4.92598 17.7393 4.9998ZM17.8582 9.12187C18.2561 9.42129 18.3135 9.87656 17.9977 10.2334C17.7557 10.5123 17.9156 10.5041 13.367 10.4918C8.87579 10.4795 9.18751 10.4959 8.93322 10.2252C8.57228 9.84375 8.72814 9.23262 9.23263 9.02754C9.29415 9.00293 10.9471 8.99062 13.5188 8.99473L17.7065 9.00293L17.8582 9.12187Z" fill="white"/>
<path d="M0.795703 4.10566C0.492188 4.22051 0.237891 4.4584 0.110742 4.74961L0 4.9957L0.00820313 9.85195L0.0205078 14.7041L0.114844 14.8887C0.246094 15.1389 0.430664 15.3234 0.676758 15.4547C0.873633 15.5613 0.910547 15.5654 1.63242 15.5777L2.37891 15.5941V17.0789C2.37891 18.535 2.37891 18.5678 2.47324 18.7441C2.6209 19.0436 3.01875 19.1666 3.32227 19.0107C3.49043 18.9246 3.53145 18.859 4.55273 17.1363L5.46328 15.5859H9.76172C14.4498 15.5859 14.2201 15.5982 14.5688 15.3521C14.6549 15.2947 14.7779 15.1635 14.8436 15.065C14.9461 14.9092 14.9584 14.8682 14.9215 14.782L14.8764 14.6836H10.8732C6.94805 14.6836 6.86191 14.6836 6.5625 14.5975C5.80371 14.3883 5.19258 13.851 4.90547 13.1414C4.85215 13.0102 4.79473 12.8297 4.77832 12.7436L4.74961 12.5918H4.09746C3.24844 12.5918 3.04746 12.5139 2.86699 12.1201C2.77266 11.9109 2.77266 11.7551 2.86699 11.5459C3.04746 11.1521 3.25254 11.0742 4.08105 11.0742H4.7168V9.80273V8.53125H4.08105C3.4002 8.53125 3.24023 8.49844 3.03926 8.31387C2.91621 8.19902 2.78906 7.92832 2.78906 7.77246C2.78906 7.47305 3.05566 7.14082 3.35508 7.05469C3.43711 7.03418 3.77754 7.01367 4.11387 7.01367H4.7168V5.5166V4.01953L2.86289 4.02363C1.11152 4.02363 0.992578 4.02774 0.795703 4.10566Z" fill="white"/>
</g>
<defs>
<clipPath id="clip0_1_115">
<rect width="21" height="21" fill="white"/>
</clipPath>
</defs>
</svg>
