<svg width="20" height="20" viewBox="0 0 20 20" fill="none" xmlns="http://www.w3.org/2000/svg">
<g clip-path="url(#clip0_1_94)">
<path d="M9.51172 1.24609C9.16212 1.50195 8.58204 1.92773 8.22266 2.19336L7.56837 2.67383L5.5918 2.67578H3.61329V4.10742V5.53906L2.51563 6.33398C1.27735 7.22851 0.810553 7.57812 0.812506 7.60742C0.812506 7.61719 0.86524 7.66992 0.929694 7.7207C1.36719 8.07422 5.05079 10.8652 7.71485 12.8613C9.5254 14.2168 9.79297 14.4141 9.82422 14.4141C9.86329 14.4141 10.5742 13.9043 13.9063 11.4844C14.9219 10.748 16.5313 9.58008 17.4863 8.88867C18.4395 8.19726 19.2188 7.625 19.2188 7.61719C19.2188 7.60156 18.4922 7.04297 17.041 5.94336L16.4746 5.51562L16.4688 4.0957L16.4648 2.67578H14.5938H12.7246L11.4668 1.72851C10.7734 1.20703 10.1934 0.781248 10.1777 0.781248C10.1602 0.781248 9.86133 0.990233 9.51172 1.24609ZM15.8594 4.05664C15.8594 4.47461 15.8535 5.82226 15.8457 7.05469L15.834 9.29492L12.8281 11.4746L9.82227 13.6562L9.5254 13.4316C9.21485 13.1992 7.08594 11.5918 5.2793 10.2246L4.21876 9.42383V6.36133V3.30078H10.0391H15.8594V4.05664Z" fill="white"/>
<path d="M9.77538 4.04297C9.45702 4.08594 8.97655 4.2207 8.63085 4.36523C7.60546 4.79297 6.76171 5.70898 6.41796 6.76758C6.24413 7.30273 6.22069 7.49219 6.23827 8.18359C6.2539 8.875 6.28515 9.02734 6.51562 9.50977C6.97069 10.4648 7.70116 11.0527 8.80468 11.3516L9.03319 11.4141H9.75585C10.5039 11.4141 10.6934 11.4023 11.0156 11.3281C11.2559 11.2715 11.7344 11.1113 11.7461 11.082C11.7715 11.0156 11.5976 10.4102 11.5508 10.4102C11.5351 10.4102 11.4297 10.4414 11.3144 10.4785C10.8613 10.627 10.4512 10.6914 9.96093 10.6914C9.60546 10.6895 9.26171 10.6426 8.9746 10.5527C8.74218 10.4805 8.33007 10.2734 8.15038 10.1387C7.67187 9.7793 7.32812 9.19922 7.23241 8.58984C7.18944 8.31445 7.18944 7.56836 7.23241 7.29297C7.29296 6.91016 7.48827 6.4375 7.73827 6.06836C7.90234 5.82422 8.27538 5.45312 8.51562 5.29492C8.8789 5.05273 9.33788 4.86133 9.69726 4.80273C9.93944 4.76172 10.7441 4.76758 10.9629 4.81055C11.4492 4.9082 11.9062 5.15039 12.2285 5.48242C12.4258 5.68359 12.5293 5.83203 12.6465 6.08008C12.793 6.38672 12.834 6.56055 12.8457 6.93359C12.8633 7.49023 12.8047 7.9043 12.666 8.19336C12.5879 8.35937 12.4336 8.56641 12.3281 8.65039C12.1269 8.80859 11.8476 8.86914 11.7246 8.77734C11.5527 8.65039 11.5566 8.50977 11.7773 6.99219C11.8418 6.55664 11.8984 6.16797 11.9043 6.12891C11.916 6.03711 11.8867 6.01562 11.6484 5.93555C11.293 5.81641 11.0957 5.79101 10.5566 5.79101C9.93944 5.79101 9.74609 5.82812 9.32616 6.02734C8.74413 6.30078 8.25194 6.87109 8.07616 7.47266C7.96093 7.86523 7.9414 8.36914 8.02734 8.69922C8.14062 9.14258 8.44726 9.47656 8.83593 9.58398C8.98046 9.62305 9.35937 9.63867 9.52148 9.61133C9.85351 9.55469 10.1621 9.37305 10.4453 9.06836L10.6191 8.88086L10.6543 8.98633C10.7578 9.30078 10.9336 9.49023 11.1992 9.57422C11.3574 9.625 11.7695 9.64258 11.9922 9.61133C12.6016 9.52148 13.1562 9.10937 13.4648 8.51562C13.7148 8.03125 13.8047 7.57031 13.7695 6.92383C13.7402 6.40039 13.6758 6.13672 13.4766 5.74219C13.2226 5.23633 12.8574 4.83398 12.3828 4.53711C12.0625 4.33789 11.5664 4.13476 11.2773 4.08398C10.9531 4.02734 10.0781 4.00391 9.77538 4.04297ZM10.5644 6.77539C10.5957 6.79492 10.5937 6.81641 10.4961 7.43555C10.4238 7.89844 10.3887 8.02344 10.2891 8.19922C10.209 8.34375 10.0156 8.53516 9.89843 8.58984C9.66796 8.69727 9.42577 8.59961 9.3203 8.35937C9.27343 8.25586 9.28124 7.84961 9.33398 7.65234C9.43749 7.25781 9.6953 6.94336 10.0332 6.80469C10.1269 6.76758 10.1797 6.75781 10.3418 6.75781C10.4492 6.75781 10.5488 6.76562 10.5644 6.77539Z" fill="white"/>
<path d="M0.78125 13.8867C0.78125 17.7109 0.787109 19.2188 0.802734 19.2188C0.835938 19.2188 3.58594 17.0801 7.23047 14.2188C7.44336 14.0527 7.61328 13.9062 7.61133 13.8965C7.60156 13.8594 5.56445 12.2559 2.95898 10.2344C2.16406 9.61719 1.35352 8.98828 1.1582 8.83398C0.960938 8.67969 0.796875 8.55469 0.791016 8.55469C0.785156 8.55469 0.78125 10.9531 0.78125 13.8867Z" fill="white"/>
<path d="M18.9844 8.71875C18.8828 8.79492 17.8066 9.60742 16.5918 10.5195C14.1289 12.373 12.9043 13.3008 12.2715 13.7969C12.2148 13.8418 12.1719 13.8867 12.1738 13.9004C12.1758 13.9121 12.2793 14 12.4023 14.0957C12.8027 14.4062 15.5508 16.4844 17.3926 17.8691L19.1895 19.2227L19.2012 18.4434C19.2324 16.4668 19.2168 8.57226 19.1816 8.57617C19.1758 8.57617 19.0859 8.64062 18.9844 8.71875Z" fill="white"/>
<path d="M7.24414 15.1211C6.71289 15.5312 5.31641 16.6133 4.14062 17.5273L2.00195 19.1895L3.32031 19.2012C5.0293 19.2168 15.0254 19.2168 16.7441 19.2012L18.0684 19.1895L17.6035 18.8457C17.3477 18.6562 16.4629 18.002 15.6348 17.3887C14.2578 16.3711 12.1094 14.793 11.6934 14.4941L11.5215 14.3711L11.3633 14.4629C11.2754 14.5137 11.0195 14.6758 10.793 14.8242C10.2734 15.1621 10.0215 15.3203 9.90625 15.3809C9.82031 15.4277 9.81445 15.4277 9.76562 15.3945C9.73828 15.377 9.38477 15.1387 8.97852 14.8672C8.57422 14.5977 8.23438 14.375 8.22461 14.375C8.21484 14.375 7.77344 14.7109 7.24414 15.1211Z" fill="white"/>
</g>
<defs>
<clipPath id="clip0_1_94">
<rect width="20" height="20" fill="white"/>
</clipPath>
</defs>
</svg>
