<svg width="50" height="50" viewBox="0 0 50 50" fill="none" xmlns="http://www.w3.org/2000/svg">
<path fill-rule="evenodd" clip-rule="evenodd" d="M18.4257 33.5312C18.7187 33.2387 19.1158 33.0744 19.5299 33.0744C19.9439 33.0744 20.3411 33.2387 20.634 33.5312L24.2173 37.1146V20.0522C24.2173 19.6378 24.3821 19.2404 24.675 18.9473C24.9681 18.6543 25.3654 18.4897 25.7798 18.4897C26.1944 18.4897 26.5917 18.6543 26.8848 18.9473C27.1777 19.2404 27.3423 19.6378 27.3423 20.0522V37.1146L30.9256 33.5312C31.0688 33.3779 31.2413 33.2548 31.4329 33.1694C31.6246 33.084 31.8315 33.0379 32.0413 33.0344C32.251 33.0306 32.4596 33.0692 32.654 33.1477C32.8485 33.2262 33.0254 33.3433 33.1738 33.4917C33.3221 33.64 33.439 33.8169 33.5177 34.0115C33.5962 34.2058 33.6348 34.4144 33.631 34.6242C33.6275 34.834 33.5815 35.0408 33.496 35.2325C33.4106 35.4242 33.2875 35.5967 33.134 35.7398L26.884 41.9896C26.591 42.2823 26.194 42.4467 25.7798 42.4467C25.3658 42.4467 24.9688 42.2823 24.6756 41.9896L18.4257 35.7398C18.1331 35.4467 17.9688 35.0496 17.9688 34.6354C17.9688 34.2215 18.1331 33.8244 18.4257 33.5312Z" fill="white"/>
<path d="M25.7813 7.55208C30.2015 7.55208 34.4409 9.30802 37.5665 12.4336C40.6919 15.5592 42.448 19.7985 42.448 24.2187H34.6355C32.6709 24.2187 31.6896 24.2187 31.0792 23.6083C30.4688 22.9979 30.4688 22.0167 30.4688 20.0521C30.4688 18.8089 29.9748 17.6166 29.0959 16.7375C28.2167 15.8584 27.0244 15.3646 25.7813 15.3646C24.5382 15.3646 23.3459 15.8584 22.4667 16.7375C21.5877 17.6166 21.0938 18.8089 21.0938 20.0521C21.0938 22.0167 21.0938 22.9979 20.4834 23.6083C19.873 24.2187 18.8917 24.2187 16.9271 24.2187H9.11462C9.11462 19.7985 10.8706 15.5592 13.9962 12.4336C17.1218 9.30802 21.3611 7.55208 25.7813 7.55208Z" fill="white"/>
</svg>
