<svg width="50" height="41" viewBox="0 0 50 41" fill="none" xmlns="http://www.w3.org/2000/svg">
<path d="M46.7798 1.70454H3.39507C1.55777 1.70454 0 3.19925 0 5.03654V35.9211C0 37.7623 1.5267 39.2045 3.39507 39.2045H46.7798C48.6209 39.2045 50 37.7623 50 35.9211V5.03654C50 3.16818 48.6209 1.70454 46.7798 1.70454ZM11.4064 3.60323C12.0795 3.60323 12.6269 4.15075 12.6269 4.82368C12.6269 5.49659 12.0794 6.04413 11.4064 6.04413C10.7335 6.04413 10.186 5.49659 10.186 4.82368C10.186 4.15075 10.7333 3.60323 11.4064 3.60323ZM7.90266 3.60323C8.57575 3.60323 9.12311 4.15075 9.12311 4.82368C9.12311 5.49659 8.57557 6.04413 7.90266 6.04413C7.22973 6.04413 6.6822 5.49659 6.6822 4.82368C6.6822 4.15075 7.22955 3.60323 7.90266 3.60323ZM4.39886 3.60323C5.07198 3.60323 5.61932 4.15075 5.61932 4.82368C5.61932 5.49659 5.07177 6.04413 4.39886 6.04413C3.72595 6.04413 3.17841 5.49659 3.17841 4.82368C3.17841 4.15075 3.72575 3.60323 4.39886 3.60323ZM46.9698 36.0795C46.9698 36.1318 46.9905 36.1743 46.9382 36.1743H46.8434H3.18807H3.0303V36.0795V8.14393V8.04925C3.0303 7.99698 3.1358 7.95454 3.18807 7.95454H46.9382C46.9905 7.95454 46.9698 7.99698 46.9698 8.04925V36.0795ZM45.8123 6.06061H32.5548C31.8816 6.06061 31.3343 5.50948 31.3343 4.832C31.3343 4.15454 31.8818 3.60341 32.5548 3.60341L45.8123 3.60757C46.4855 3.60757 47.0327 4.15682 47.0327 4.8322C47.0327 5.50948 46.4852 6.06061 45.8123 6.06061Z" fill="white"/>
<path d="M7.5548 15.5303H20.8124C21.4855 15.5303 22.0328 14.9786 22.0328 14.3004C22.0328 13.625 21.4853 13.0752 20.8124 13.0752L7.5548 13.0707C6.88169 13.0707 6.33435 13.6224 6.33435 14.3004C6.33417 14.9786 6.88169 15.5303 7.5548 15.5303Z" fill="white"/>
<path d="M20.8124 17.242L7.5548 17.2374C6.88169 17.2374 6.33435 17.7891 6.33435 18.4672C6.33435 19.1454 6.8819 19.6971 7.5548 19.6971H20.8124C21.4855 19.6971 22.0328 19.1454 22.0328 18.4672C22.0328 17.7916 21.4853 17.242 20.8124 17.242Z" fill="white"/>
<path d="M20.8124 21.4085L7.5548 21.4039C6.88169 21.4039 6.33435 21.9556 6.33435 22.6337C6.33435 23.3118 6.8819 23.8636 7.5548 23.8636H20.8124C21.4855 23.8636 22.0328 23.3118 22.0328 22.6337C22.0328 21.9581 21.4853 21.4085 20.8124 21.4085Z" fill="white"/>
<path d="M20.8124 25.5752L7.5548 25.5707C6.88169 25.5707 6.33435 26.1223 6.33435 26.8005C6.33435 27.4786 6.8819 28.0302 7.5548 28.0302H20.8124C21.4855 28.0302 22.0328 27.4786 22.0328 26.8005C22.0328 26.1248 21.4853 25.5752 20.8124 25.5752Z" fill="white"/>
<path d="M41.4457 12.6895H27.4305C26.125 12.6895 25 13.7514 25 15.0569V15.1516V29.072V29.1668C25 30.4218 26.0807 31.4395 27.3357 31.4395H27.4305H41.3509H41.4457C42.7511 31.4395 43.75 30.3775 43.75 29.072V15.0569C43.75 13.7514 42.7511 12.6895 41.4457 12.6895Z" fill="white"/>
</svg>
