<svg width="50" height="67" viewBox="0 0 50 67" fill="none" xmlns="http://www.w3.org/2000/svg">
<path d="M25 0C17.3204 0 10.7194 4.73999 7.8125 11.4972C7.63139 11.8794 7.52855 12.2945 7.51013 12.7177C7.49171 13.1409 7.55809 13.5636 7.7053 13.9603C7.85251 14.3571 8.07753 14.7198 8.36691 15.0269C8.65629 15.334 9.00409 15.5791 9.38953 15.7476C9.77497 15.916 10.1901 16.0044 10.6102 16.0074C11.0303 16.0104 11.4467 15.928 11.8344 15.7651C12.2222 15.6022 12.5734 15.3621 12.8671 15.0592C13.1608 14.7563 13.3909 14.3968 13.5437 14.0022C15.5118 9.42744 19.8546 6.30252 25 6.30252C32.1131 6.30252 37.5 11.7347 37.5 18.9076V22.0588H6.25C2.8125 22.0588 0 24.895 0 28.3613V59.8739C0 63.3403 2.8125 66.1765 6.25 66.1765H43.75C47.1875 66.1765 50 63.3403 50 59.8739V28.3613C50 24.895 47.1875 22.0588 43.75 22.0588V18.9076C43.75 8.43337 35.3869 0 25 0ZM25 37.8151C28.4375 37.8151 31.25 40.6513 31.25 44.1176C31.25 47.584 28.4375 50.4202 25 50.4202C21.5625 50.4202 18.75 47.584 18.75 44.1176C18.75 40.6513 21.5625 37.8151 25 37.8151Z" fill="white"/>
</svg>
