<svg width="50" height="42" viewBox="0 0 50 42" fill="none" xmlns="http://www.w3.org/2000/svg">
<g clip-path="url(#clip0_0_150)">
<path d="M36.8183 3.20275L8.18153 35.7252C6.96494 37.1069 7.09876 39.2132 8.48043 40.4298C9.86209 41.6464 11.9684 41.5125 13.185 40.1309L41.8218 7.60842C43.0384 6.22675 42.9046 4.12045 41.5229 2.90386C40.1412 1.68727 38.0349 1.82109 36.8183 3.20275Z" fill="white"/>
<path d="M13.1817 3.20277L41.8185 35.7252C43.0351 37.1069 42.9013 39.2132 41.5196 40.4298C40.138 41.6464 38.0317 41.5125 36.8151 40.1309L8.17824 7.60844C6.96165 6.22678 7.09547 4.12047 8.47714 2.90388C9.8588 1.68728 11.9651 1.82111 13.1817 3.20277Z" fill="white"/>
</g>
<defs>
<clipPath id="clip0_0_150">
<rect width="50" height="41.6667" fill="white"/>
</clipPath>
</defs>
</svg>
