<svg width="24" height="18" viewBox="0 0 24 18" fill="none" xmlns="http://www.w3.org/2000/svg">
<path d="M11.3792 0.0339085C9.94458 0.229416 8.69536 1.16379 8.10376 2.48664C7.502 3.82473 7.63657 5.39133 8.45669 6.61008C9.64243 8.36965 11.9784 8.97141 13.8827 8.00656C15.7057 7.08742 16.6045 5.00031 16.0282 3.02746C15.825 2.33176 15.4721 1.7427 14.9389 1.21457C14.393 0.673752 13.7303 0.305588 12.9584 0.11008C12.5217 0.000900674 11.8616 -0.0321071 11.3792 0.0339085Z" fill="white"/>
<path d="M3.51058 2.28352C2.51273 2.4511 1.68754 3.1925 1.38539 4.19797C1.32191 4.41125 1.31683 4.45695 1.31683 4.90891C1.31683 5.32531 1.32445 5.41926 1.37269 5.58938C1.63422 6.53391 2.34008 7.24485 3.26937 7.50129C3.55629 7.58254 4.07172 7.61047 4.36625 7.56223C5.77543 7.33879 6.76058 6.0591 6.60824 4.65246C6.48129 3.45402 5.62054 2.51711 4.44242 2.29367C4.22406 2.25305 3.73656 2.24797 3.51058 2.28352Z" fill="white"/>
<path d="M19.4686 2.29367C18.2143 2.52473 17.2977 3.63176 17.2977 4.9216C17.2977 6.13527 18.0924 7.17629 19.2654 7.50383C19.5803 7.59016 20.1084 7.61301 20.4334 7.54953C21.7156 7.30832 22.6297 6.21399 22.6297 4.9216C22.6297 3.65715 21.7385 2.56028 20.5045 2.30891C20.2074 2.24797 19.7529 2.24035 19.4686 2.29367Z" fill="white"/>
<path d="M1.72562 7.34641C1.24066 7.52414 0.824256 7.93039 0.666834 8.37981C0.638905 8.45852 0.478944 9.34973 0.308827 10.3603C-0.0314079 12.3839 -0.0466422 12.521 0.0549203 12.8054C0.174256 13.1431 0.410389 13.3767 0.763319 13.5113C0.908045 13.5671 0.913123 13.5671 3.46742 13.5747C4.87406 13.5773 6.02426 13.5874 6.02426 13.5925C6.02426 13.6001 5.93793 14.1206 5.83129 14.7529C5.65101 15.8396 5.64086 15.9208 5.65101 16.2077C5.66879 16.7232 5.82621 17.0888 6.17914 17.4392C6.40004 17.6575 6.65902 17.8099 6.97641 17.9013L7.17953 17.9597H11.9911H16.8026L17.0032 17.9013C17.3256 17.8073 17.5846 17.6601 17.803 17.4392C18.1584 17.0888 18.3133 16.7232 18.3311 16.2077C18.3412 15.9208 18.3311 15.8396 18.1508 14.7529C18.0442 14.1206 17.9579 13.5976 17.9579 13.5925C17.9579 13.5849 19.0725 13.5798 20.4334 13.5798C22.1397 13.5798 22.9471 13.5722 23.0411 13.5519C23.4498 13.4655 23.7672 13.1888 23.8993 12.7952C23.9932 12.5159 23.978 12.3738 23.6454 10.3857C23.4778 9.38527 23.328 8.51945 23.3127 8.46359C23.1756 7.97609 22.7186 7.51399 22.2057 7.34641L22.0762 7.30324L21.8553 7.46828C21.2815 7.89231 20.6721 8.09543 19.9713 8.09797C19.6666 8.09797 19.5879 8.09035 19.3416 8.04211C18.8694 7.94563 18.3006 7.67141 17.9756 7.38449L17.8791 7.3007L17.7344 7.34387C17.4805 7.42258 17.2723 7.55715 17.0438 7.7882C16.8 8.03195 16.6553 8.28586 16.6045 8.54738L16.5766 8.69719L16.4065 8.555C16.1323 8.32395 15.6346 8.06496 15.3959 8.03195C15.3147 8.01926 15.2868 8.03195 15.1268 8.16145C14.5555 8.62863 13.776 9.00188 13.0524 9.1593C12.6893 9.23801 12.4024 9.26594 11.9682 9.26594C10.8205 9.26594 9.77445 8.90031 8.84769 8.17922C8.60648 7.99133 8.59887 7.98879 8.29418 8.11067C8.00473 8.22238 7.56293 8.50168 7.44867 8.63879C7.39535 8.70227 7.38012 8.68957 7.34711 8.53977C7.32933 8.46106 7.2684 8.30363 7.21 8.18938C7.02211 7.81359 6.59301 7.45305 6.18422 7.33371C6.08012 7.3007 6.07758 7.30324 5.9557 7.40227C5.77035 7.55461 5.62308 7.65109 5.37426 7.77297C4.92992 7.99641 4.49066 8.09797 3.97777 8.09797C3.25668 8.09797 2.59144 7.86438 2.02015 7.41242C1.87543 7.29817 1.86527 7.29563 1.72562 7.34641Z" fill="white"/>
</svg>
