<svg width="40" height="35" viewBox="0 0 40 35" fill="none" xmlns="http://www.w3.org/2000/svg">
<path fill-rule="evenodd" clip-rule="evenodd" d="M35.2929 27.468L21.5039 4.95538C20.7237 3.68154 18.8731 3.68155 18.0929 4.95537L4.30392 27.468C3.48767 28.8007 4.44667 30.5126 6.00943 30.5126H33.5874C35.1502 30.5126 36.1091 28.8006 35.2929 27.468ZM24.9149 2.86613C22.5743 -0.955372 17.0226 -0.955379 14.6819 2.86612L0.892907 25.3787C-1.55585 29.3767 1.32114 34.5126 6.00943 34.5126H33.5874C38.2757 34.5126 41.1527 29.3767 38.7039 25.3788L24.9149 2.86613Z" fill="white"/>
<path d="M17.7782 14.2091C17.664 13.0715 18.4989 12.0794 19.5704 12.0794C20.652 12.0794 21.4901 13.0894 21.3599 14.2358L20.348 23.1406C20.2967 23.5924 19.9376 23.9321 19.5114 23.9321C19.0807 23.9321 18.7193 23.5854 18.6734 23.1282L17.7782 14.2091ZM19.5846 28.4729C19.2255 28.4729 18.9337 28.3487 18.7092 28.1003C18.4847 27.8519 18.3725 27.5492 18.3725 27.1922C18.3725 26.8351 18.4847 26.5324 18.7092 26.284C18.9337 26.0356 19.2255 25.9114 19.5846 25.9114C19.9139 25.9114 20.1982 26.0356 20.4376 26.284C20.6771 26.5324 20.7968 26.8351 20.7968 27.1922C20.7968 27.5492 20.6771 27.8519 20.4376 28.1003C20.1982 28.3487 19.9139 28.4729 19.5846 28.4729Z" fill="white"/>
</svg>
