<svg width="50" height="50" viewBox="0 0 50 50" fill="none" xmlns="http://www.w3.org/2000/svg">
<path d="M23.5858 48.5858L1.41421 26.4142C0.633165 25.6332 0.633166 24.3668 1.41421 23.5858L8.75 16.25C9.58333 15 11.5 13.25 12.5 16.25C13.75 20 17 21 18.75 18.75C19.7927 17.4094 19.75 13.5 16 13.5C13 13.5 14.1667 11.25 15 10L23.5858 1.41421C24.3668 0.633165 25.6332 0.633163 26.4142 1.41421L35 10C35.8333 5.83333 39 -0.999999 45 5C51 11 45 15 41.25 16.25L48.6891 23.6891C49.4281 24.4281 49.4723 25.6152 48.7956 26.4116C42.2223 34.1473 39.8611 37.3611 37.5 35C36 31.5 34.5 27.5 30.5 30.5C27.5 33 29 36.5 33.75 37.5C36.4851 38.0758 35 40.4167 33.75 41.25L26.4142 48.5858C25.6332 49.3668 24.3668 49.3668 23.5858 48.5858Z" fill="white"/>
</svg>
