<svg width="50" height="50" viewBox="0 0 50 50" fill="none" xmlns="http://www.w3.org/2000/svg">
<path d="M6.25 36.3747V42.7081C6.25 43.2914 6.70833 43.7497 7.29167 43.7497H13.625C13.8958 43.7497 14.1667 43.6456 14.3542 43.4372L37.1042 20.7081L29.2917 12.8956L6.5625 35.6247C6.35417 35.8331 6.25 36.0831 6.25 36.3747ZM43.1458 14.6664C43.3389 14.4737 43.4922 14.2448 43.5967 13.9927C43.7013 13.7407 43.7552 13.4705 43.7552 13.1977C43.7552 12.9248 43.7013 12.6546 43.5967 12.4026C43.4922 12.1506 43.3389 11.9217 43.1458 11.7289L38.2708 6.85392C38.0781 6.66078 37.8492 6.50756 37.5972 6.40302C37.3452 6.29847 37.075 6.24466 36.802 6.24466C36.5292 6.24466 36.2591 6.29847 36.007 6.40302C35.755 6.50756 35.5261 6.66078 35.3333 6.85392L31.5208 10.6664L39.3333 18.4789L43.1458 14.6664Z" fill="white"/>
</svg>
