<svg width="50" height="49" viewBox="0 0 50 49" fill="none" xmlns="http://www.w3.org/2000/svg">
<path fill-rule="evenodd" clip-rule="evenodd" d="M4.17533 1.72414H46.5251C47.492 1.72414 48.2759 2.49048 48.2759 3.43582V44.84C48.2759 45.7854 47.492 46.5517 46.5251 46.5517H4.17533C3.20841 46.5517 2.42456 45.7854 2.42456 44.84V3.43582C2.42456 2.49048 3.20841 1.72414 4.17533 1.72414ZM24.0864 30.0196L34.0464 20.2827C34.7838 19.5609 34.7838 18.3915 34.0462 17.6702C33.3084 16.9492 32.1121 16.9487 31.374 17.6702L22.7507 26.1011L18.9447 22.38C18.2071 21.6587 17.0108 21.6587 16.2728 22.3802C15.535 23.1017 15.535 24.2714 16.2728 24.9927L21.4142 30.0196C22.1525 30.7409 23.349 30.7409 24.0864 30.0196Z" fill="white"/>
</svg>
