<svg width="50" height="50" viewBox="0 0 50 50" fill="none" xmlns="http://www.w3.org/2000/svg">
<path fill-rule="evenodd" clip-rule="evenodd" d="M18.4257 16.4687C18.7187 16.7613 19.1158 16.9256 19.5299 16.9256C19.9439 16.9256 20.3411 16.7613 20.634 16.4687L24.2173 12.8853V29.9477C24.2173 30.3623 24.3821 30.7596 24.675 31.0527C24.9681 31.3456 25.3654 31.5102 25.7798 31.5102C26.1944 31.5102 26.5917 31.3456 26.8848 31.0527C27.1777 30.7596 27.3423 30.3623 27.3423 29.9477V12.8853L30.9256 16.4687C31.0688 16.6222 31.2413 16.7453 31.4329 16.8307C31.6246 16.9161 31.8315 16.962 32.0413 16.9657C32.251 16.9694 32.4596 16.9308 32.654 16.8522C32.8485 16.7737 33.0254 16.6567 33.1738 16.5083C33.3221 16.3599 33.439 16.1832 33.5177 15.9887C33.5962 15.7941 33.6348 15.5857 33.631 15.3759C33.6275 15.1661 33.5815 14.9592 33.496 14.7675C33.4106 14.5759 33.2875 14.4034 33.134 14.2603L26.884 8.01032C26.591 7.71771 26.194 7.55336 25.7798 7.55336C25.3658 7.55336 24.9688 7.71771 24.6756 8.01032L18.4257 14.2603C18.1331 14.5533 17.9688 14.9504 17.9688 15.3645C17.9688 15.7785 18.1331 16.1757 18.4257 16.4687Z" fill="white"/>
<path d="M25.7813 42.4479C30.2015 42.4479 34.4409 40.6919 37.5665 37.5665C40.6919 34.4408 42.448 30.2015 42.448 25.7812H34.6355C32.6709 25.7812 31.6896 25.7813 31.0792 26.3917C30.4688 27.0021 30.4688 27.9833 30.4688 29.9479C30.4688 31.191 29.9748 32.3833 29.0959 33.2625C28.2167 34.1415 27.0244 34.6354 25.7813 34.6354C24.5382 34.6354 23.3459 34.1415 22.4667 33.2625C21.5877 32.3833 21.0938 31.191 21.0938 29.9479C21.0938 27.9833 21.0938 27.0021 20.4834 26.3917C19.873 25.7813 18.8917 25.7812 16.9271 25.7812H9.11462C9.11462 30.2015 10.8706 34.4408 13.9962 37.5665C17.1218 40.6919 21.3611 42.4479 25.7813 42.4479Z" fill="white"/>
</svg>
